<?xml version="1.0" encoding="utf-8"?>
<!-- Generator: Adobe Illustrator 26.0.0, SVG Export Plug-In . SVG Version: 6.00 Build 0)  -->
<svg version="1.1" id="图层_1" xmlns="http://www.w3.org/2000/svg" xmlns:xlink="http://www.w3.org/1999/xlink" x="0px" y="0px"
	 viewBox="0 0 500 500" style="enable-background:new 0 0 500 500;" xml:space="preserve">
<style type="text/css">
	.st0{fill:#EBEBEB;}
	.st1{fill:#F0F0F0;}
	.st2{fill:#E0E0E0;}
	.st3{fill:#E6E6E6;}
	.st4{fill:#F5F5F5;}
	.st5{fill:#FFFFFF;}
	.st6{fill:#55A684;}
	.st7{opacity:0.2;enable-background:new    ;}
	.st8{fill:#1D241F;}
	.st9{opacity:0.5;fill:#FFFFFF;enable-background:new    ;}
	.st10{opacity:0.1;enable-background:new    ;}
	.st11{opacity:0.6;fill:#FFFFFF;enable-background:new    ;}
	.st12{opacity:0.4;fill:#FFFFFF;enable-background:new    ;}
	.st13{fill:#263238;}
	.st14{opacity:0.6;}
	.st15{opacity:0.1;fill:#FFFFFF;enable-background:new    ;}
	.st16{opacity:0.7;fill:#FFFFFF;enable-background:new    ;}
	.st17{opacity:0.5;}
	.st18{fill:#DC897C;}
	.st19{fill:#DE5753;}
	.st20{fill:#E4897B;}
	.st21{opacity:0.2;fill:#FFFFFF;enable-background:new    ;}
	.st22{opacity:0.8;fill:#FFFFFF;enable-background:new    ;}
</style>
<g id="freepik--background-complete--inject-8">
	<rect y="382.4" class="st0" width="500" height="0.2"/>
	<rect x="416.8" y="398.5" class="st0" width="33.1" height="0.2"/>
	<rect x="322.5" y="401.2" class="st0" width="8.7" height="0.2"/>
	<rect x="396.6" y="389.2" class="st0" width="19.2" height="0.2"/>
	<rect x="52.5" y="390.9" class="st0" width="43.2" height="0.2"/>
	<rect x="104.6" y="390.9" class="st0" width="6.3" height="0.2"/>
	<rect x="131.5" y="395.1" class="st0" width="93.7" height="0.2"/>
	<rect x="66.2" y="183.7" class="st1" width="156.5" height="198.2"/>
	<rect x="71.7" y="191" class="st2" width="145.5" height="42.4"/>
	<rect x="71.7" y="197.8" class="st0" width="8.3" height="35.5"/>
	<rect x="111.6" y="197.8" class="st0" width="8.3" height="35.5"/>
	
		<rect x="160.1" y="197.4" transform="matrix(0.9855 -0.1699 0.1699 0.9855 -34.1554 31.0194)" class="st0" width="8.3" height="35.5"/>
	<rect x="81.9" y="202.5" class="st0" width="8.3" height="30.8"/>
	<rect x="100.9" y="202.5" class="st0" width="8.3" height="30.8"/>
	<rect x="148.9" y="202.5" class="st0" width="8.3" height="30.8"/>
	<rect x="125.9" y="202" transform="matrix(0.9762 -0.217 0.217 0.9762 -44.0642 33.3953)" class="st0" width="8.3" height="30.8"/>
	<rect x="93.2" y="196.1" class="st0" width="4.1" height="37.3"/>
	<rect x="142.4" y="196.1" class="st0" width="4.1" height="37.3"/>
	<rect x="71.7" y="240" class="st2" width="145.5" height="42.4"/>
	<rect x="208.9" y="246.9" class="st0" width="8.3" height="35.5"/>
	<rect x="168.9" y="246.9" class="st0" width="8.3" height="35.5"/>
	
		<rect x="106.9" y="260.1" transform="matrix(0.1699 -0.9855 0.9855 0.1699 -156.946 342.1693)" class="st0" width="35.5" height="8.3"/>
	<rect x="198.6" y="251.6" class="st0" width="8.3" height="30.8"/>
	<rect x="179.7" y="251.6" class="st0" width="8.3" height="30.8"/>
	<rect x="131.7" y="251.6" class="st0" width="8.3" height="30.8"/>
	
		<rect x="143.4" y="262.4" transform="matrix(0.217 -0.9762 0.9762 0.217 -135.8073 363.6649)" class="st0" width="30.8" height="8.3"/>
	<rect x="191.5" y="245.2" class="st0" width="4.1" height="37.3"/>
	<rect x="142.3" y="245.2" class="st0" width="4.1" height="37.3"/>
	<rect x="71.7" y="246.9" class="st0" width="8.3" height="35.5"/>
	<rect x="81.9" y="251.6" class="st0" width="8.3" height="30.8"/>
	<rect x="100.9" y="251.6" class="st0" width="8.3" height="30.8"/>
	<rect x="93.2" y="245.1" class="st0" width="4.1" height="37.3"/>
	<rect x="71.7" y="289.1" class="st2" width="145.5" height="42.4"/>
	<rect x="155.2" y="296" class="st0" width="8.3" height="35.5"/>
	
		<rect x="203.6" y="295.6" transform="matrix(0.9855 -0.1699 0.1699 0.9855 -50.2029 39.8421)" class="st0" width="8.3" height="35.5"/>
	<rect x="125.4" y="300.7" class="st0" width="8.3" height="30.8"/>
	<rect x="144.4" y="300.7" class="st0" width="8.3" height="30.8"/>
	<rect x="192.4" y="300.7" class="st0" width="8.3" height="30.8"/>
	
		<rect x="169.5" y="300.2" transform="matrix(0.9762 -0.217 0.217 0.9762 -64.3305 45.1818)" class="st0" width="8.3" height="30.8"/>
	<rect x="136.7" y="294.2" class="st0" width="4.1" height="37.3"/>
	<rect x="185.9" y="294.2" class="st0" width="4.1" height="37.3"/>
	
		<rect x="108.5" y="295.6" transform="matrix(0.9855 -0.1699 0.1699 0.9855 -51.5861 23.6934)" class="st0" width="8.3" height="35.5"/>
	<rect x="97.3" y="300.7" class="st0" width="8.3" height="30.8"/>
	
		<rect x="74.4" y="300.2" transform="matrix(0.9762 -0.217 0.217 0.9762 -66.5961 24.5552)" class="st0" width="8.3" height="30.8"/>
	<rect x="90.8" y="294.2" class="st0" width="4.1" height="37.3"/>
	<path class="st3" d="M305.3,263.6h88.2c9.6,0,17.3,7.8,17.3,17.3c0,0,0,0,0,0.1v68.9H288V281C288,271.4,295.7,263.7,305.3,263.6z"
		/>
	<path class="st2" d="M261.9,314.7h15.8c5.7,0,10.3,4.6,10.3,10.3c0,0,0,0,0,0.1v57h-36.4v-57C251.6,319.3,256.2,314.7,261.9,314.7
		C261.9,314.7,261.9,314.7,261.9,314.7z"/>
	<path class="st0" d="M261.9,314.7h0.3c5.7,0,10.3,4.6,10.3,10.3c0,0,0,0,0,0v57h-20.9v-57C251.6,319.3,256.2,314.7,261.9,314.7
		C261.9,314.7,261.9,314.7,261.9,314.7z"/>
	<rect x="276.9" y="355.8" class="st3" width="121.1" height="26.2"/>
	<path class="st4" d="M276.7,331.9h116.8c5.8,0,10.5,4.7,10.5,10.5v6.5c0,5.8-4.7,10.5-10.5,10.5H276.7c-5.8,0-10.5-4.7-10.5-10.5
		v-6.5C266.3,336.5,271,331.9,276.7,331.9z"/>
	<path class="st2" d="M378.8,331.9h14.5c5.8,0,10.5,4.7,10.5,10.5v6.5c0,5.8-4.7,10.5-10.5,10.5h-14.5c-5.8,0-10.5-4.7-10.5-10.5
		v-6.5C368.4,336.5,373,331.9,378.8,331.9z"/>
	<path class="st2" d="M394.9,314.7h15.8c5.7,0,10.3,4.6,10.3,10.3c0,0,0,0,0,0v57h-36.4v-57C384.6,319.3,389.2,314.7,394.9,314.7
		C394.8,314.7,394.9,314.7,394.9,314.7z"/>
	<path class="st1" d="M394.9,314.7h0.3c5.7,0,10.3,4.6,10.3,10.3c0,0,0,0,0,0v57h-20.9v-57C384.6,319.3,389.2,314.7,394.9,314.7
		C394.8,314.7,394.9,314.7,394.9,314.7z"/>
	<circle class="st2" cx="146.5" cy="136.4" r="23.6"/>
	<circle class="st1" cx="146.5" cy="136.4" r="20"/>
	<polyline class="st1" points="145.5,150.1 145.5,136.1 136.3,141.4 	"/>
	<path class="st2" d="M145.5,151.1c-0.6,0-1-0.4-1-1v-12.3l-7.8,4.4c-0.5,0.3-1.1,0.1-1.4-0.4c-0.3-0.5-0.1-1.1,0.4-1.4l9.3-5.2
		c0.5-0.3,1.1-0.1,1.4,0.4c0.1,0.1,0.1,0.3,0.1,0.5v14C146.5,150.7,146.1,151.1,145.5,151.1z"/>
	<rect x="277.9" y="106.7" class="st3" width="150.8" height="133.8"/>
	<rect x="281.6" y="110.3" class="st1" width="143" height="126.5"/>
	<polygon class="st5" points="315.2,110.3 281.6,236.6 281.6,177.3 299.4,110.3 	"/>
	<polygon class="st5" points="327.1,110.3 293.2,236.9 287.8,236.9 321.7,110.3 	"/>
	<polygon class="st5" points="424.6,190.2 424.6,210.4 417.8,236.9 412.4,236.9 	"/>
	<rect x="329.1" y="108.1" class="st3" width="2.4" height="131.6"/>
	<rect x="375.8" y="108.1" class="st3" width="2.4" height="131.6"/>
</g>
<g id="freepik--Shadow--inject-8">
	<ellipse id="freepik--path--inject-8" class="st4" cx="250" cy="416.2" rx="193.9" ry="11.3"/>
</g>
<g id="freepik--Plant--inject-8">
	<path class="st6" d="M401.9,391.2c0,0,4.8-10.4-0.7-20.6s-7-12.6-3.5-14.7s5,8.2,5,8.2c1.7-4.6,1.9-9.7,0.5-14.5
		c-2.4-7.4-3.9-19.4-0.6-20.7s0.6,15,3.5,20.6c1.5-3.9,2.4-8,2.8-12.1c0.4-5.9-0.2-15.4,2.4-17.9s4.3-0.8,1.7,12.4
		c-1.5,7.8-2.4,15.8-2.5,23.8c0,0,5.6-17.2,9.4-17.7s3.8,5.1,0.5,9.9s-9.5,13.5-10.5,17.9c0,0,6.2-12.9,11.8-9s-4.8,11.8-9.5,14.6
		s-7.9,20.5-7.9,20.5L401.9,391.2z"/>
	<path class="st7" d="M401.9,391.2c0,0,4.8-10.4-0.7-20.6s-7-12.6-3.5-14.7s5,8.2,5,8.2c1.7-4.6,1.9-9.7,0.5-14.5
		c-2.4-7.4-3.9-19.4-0.6-20.7s0.6,15,3.5,20.6c1.5-3.9,2.4-8,2.8-12.1c0.4-5.9-0.2-15.4,2.4-17.9s4.3-0.8,1.7,12.4
		c-1.5,7.8-2.4,15.8-2.5,23.8c0,0,5.6-17.2,9.4-17.7s3.8,5.1,0.5,9.9s-9.5,13.5-10.5,17.9c0,0,6.2-12.9,11.8-9s-4.8,11.8-9.5,14.6
		s-7.9,20.5-7.9,20.5L401.9,391.2z"/>
	<path class="st6" d="M405.6,395.5c0,0-4.6-10.4,0.9-20.6s7.1-12.5,3.7-14.7s-5.1,8.1-5.1,8.1c-1.7-4.7-1.8-9.7-0.3-14.5
		c2.5-7.4,4.1-19.4,0.9-20.7s-0.8,15-3.7,20.5c-1.4-3.9-2.3-8-2.6-12.2c-0.3-5.9,0.4-15.4-2.2-17.9s-4.2-0.8-1.9,12.3
		c1.4,7.8,2.2,15.8,2.2,23.8c0,0-5.4-17.3-9.2-17.8s-3.8,5-0.7,9.9s9.3,13.6,10.3,18.1c0,0-6-13-11.6-9.1s4.7,11.8,9.3,14.7
		s7.6,20.6,7.6,20.6L405.6,395.5z"/>
	<polygon class="st8" points="384.3,388 422.5,388 419.4,415.4 387.4,415.4 	"/>
</g>
<g id="freepik--Device--inject-8">
	<path class="st8" d="M242.6,411v3.6c0,0.4-0.4,0.8-0.8,0.8H140.4c-2.9,0-5.3-2.4-5.3-5.3c0-0.7,0.1-1.3,0.4-2l32.1-79.6l51.9,0.4
		l-1.8,10.3l-11.5,66.9c-0.3,1.9,1,3.8,2.9,4.1c0.2,0,0.4,0,0.6,0h32C242.2,410.2,242.6,410.5,242.6,411
		C242.6,411,242.6,411,242.6,411z"/>
	<path class="st9" d="M242.6,411v3.6c0,0.4-0.4,0.8-0.8,0.8H140.4c-2.9,0-5.3-2.4-5.3-5.3c0-0.7,0.1-1.3,0.4-2l19.9-49.4l12.2-30.2
		l51.9,0.4l-1.8,10.3l-5,29.1l-6.5,37.8c-0.3,1.9,1,3.8,2.9,4.1c0.2,0,0.4,0,0.6,0h32C242.2,410.2,242.6,410.5,242.6,411
		C242.6,411,242.6,411,242.6,411z"/>
	<path class="st7" d="M209.8,410.2h-66c-1.3,0-2.3-1-2.3-2.3c0-0.3,0.1-0.6,0.2-0.9l28.2-67.8h47.9l-11.5,66.9
		c-0.3,1.9,1,3.8,2.9,4.1C209.4,410.2,209.6,410.2,209.8,410.2z"/>
	<polygon class="st10" points="219.5,328.9 217.8,339.2 212.8,368.3 155.4,358.8 167.6,328.5 	"/>
	<path class="st8" d="M320.5,180.5H80.1c-3.4,0-6.2,2.8-6.2,6.1v162.8c0,3.4,2.8,6.1,6.2,6.1h240.4c3.4,0,6.2-2.8,6.2-6.1V186.6
		C326.7,183.3,323.9,180.5,320.5,180.5z"/>
	<path class="st11" d="M320.5,180.5H80.1c-3.4,0-6.2,2.8-6.2,6.1v162.8c0,3.4,2.8,6.1,6.2,6.1h240.4c3.4,0,6.2-2.8,6.2-6.1V186.6
		C326.7,183.3,323.9,180.5,320.5,180.5z"/>
	<path class="st7" d="M85.2,355.6h-5.1c-3.4,0-6.1-2.7-6.2-6.1V186.7c0-3.4,2.7-6.2,6.1-6.2c0,0,0,0,0,0h5.1c-3.4,0-6.2,2.7-6.2,6.1
		c0,0,0,0,0,0v162.8C79,352.8,81.7,355.6,85.2,355.6C85.2,355.6,85.2,355.6,85.2,355.6z"/>
	<rect x="84.6" y="185.8" class="st6" width="236.6" height="157"/>
	<circle class="st12" cx="199.6" cy="225" r="20.5"/>
	<path class="st5" d="M194.7,221.9V220c0-1.9,1.5-3.4,3.4-3.4c0,0,0,0,0,0h3c1.9,0,3.4,1.5,3.4,3.3c0,0,0,0,0,0v1.9h2.2V220
		c0-3.1-2.5-5.6-5.6-5.6h-3c-3.1,0-5.6,2.5-5.6,5.6v1.9L194.7,221.9z"/>
	<path class="st5" d="M189.8,224.4v10.1c0,0.6,0.5,1.1,1.1,1.1h17.5c0.6,0,1.1-0.5,1.1-1.1v-10.1c0-0.6-0.5-1.1-1.1-1.1h-17.5
		C190.3,223.3,189.8,223.8,189.8,224.4z M200.2,230.1v2H199v-2c-0.4-0.2-0.6-0.6-0.6-1c0-0.7,0.6-1.2,1.2-1.2s1.2,0.6,1.2,1.2
		C200.9,229.5,200.6,229.9,200.2,230.1L200.2,230.1z"/>
	<path class="st5" d="M130.1,262.5h19.4c1.2,0,2.1,0.9,2.1,2.1V284c0,1.2-0.9,2.1-2.1,2.1h-19.4c-1.2,0-2.1-0.9-2.1-2.1v-19.4
		C128,263.5,128.9,262.5,130.1,262.5z"/>
	<path class="st5" d="M160,262.5h19.4c1.2,0,2.1,0.9,2.1,2.1V284c0,1.2-0.9,2.1-2.1,2.1H160c-1.2,0-2.1-0.9-2.1-2.1v-19.4
		C157.9,263.5,158.8,262.5,160,262.5z"/>
	<path class="st5" d="M189.9,262.5h19.4c1.2,0,2.1,0.9,2.1,2.1V284c0,1.2-0.9,2.1-2.1,2.1h-19.4c-1.2,0-2.1-0.9-2.1-2.1v-19.4
		C187.8,263.4,188.7,262.5,189.9,262.5z"/>
	<path class="st5" d="M219.8,262.5h19.4c1.2,0,2.1,0.9,2.1,2.1v19.4c0,1.2-0.9,2.1-2.1,2.1h-19.4c-1.2,0-2.1-0.9-2.1-2.1v-19.4
		C217.7,263.4,218.6,262.5,219.8,262.5z"/>
	<path class="st5" d="M249.7,262.4h19.4c1.2,0,2.1,0.9,2.1,2.1v19.4c0,1.2-0.9,2.1-2.1,2.1h-19.4c-1.2,0-2.1-0.9-2.1-2.1v-19.4
		C247.6,263.4,248.5,262.4,249.7,262.4z"/>
	<path class="st13" d="M254.2,274.7c0-4.1,2.2-6.5,5.2-6.5s5.2,2.4,5.2,6.5s-2.2,6.5-5.2,6.5S254.2,278.8,254.2,274.7z M262.8,274.7
		c0-3.3-1.4-4.9-3.4-4.9s-3.4,1.6-3.4,4.9s1.4,4.9,3.4,4.9S262.8,277.9,262.8,274.7z"/>
	<path class="st8" d="M144.5,274.5c0,4.3-2.5,6.7-6,6.7c-1.1,0-2.2-0.2-3.2-0.8l0.6-1.4c0.7,0.4,1.6,0.6,2.4,0.6
		c2.6,0,4.2-1.6,4.2-4.8v-0.5c-0.9,1.1-2.2,1.8-3.7,1.7c-2.5,0-4.4-1.5-4.4-3.9s2-4,4.5-4C142.6,268.2,144.5,270.5,144.5,274.5z
		 M142.3,272.1c0-1.3-1-2.5-3-2.5c-1.4-0.2-2.6,0.8-2.8,2.2c0,0.1,0,0.2,0,0.3c0,1.5,1.1,2.5,2.9,2.5S142.3,273.5,142.3,272.1z"/>
	<path class="st8" d="M164.5,274.7c0-4.1,2.2-6.5,5.2-6.5s5.2,2.4,5.2,6.5s-2.2,6.5-5.2,6.5S164.5,278.8,164.5,274.7z M173.1,274.7
		c0-3.3-1.4-4.9-3.4-4.9s-3.4,1.6-3.4,4.9s1.4,4.9,3.4,4.9S173.1,277.9,173.1,274.7z"/>
	<path class="st8" d="M204.2,279.5v1.5h-9.1v-1.2l5.2-5c1.4-1.3,1.6-2.1,1.6-2.9c0-1.3-0.9-2.1-2.7-2.1c-1.2-0.1-2.4,0.4-3.2,1.4
		l-1.2-1.1c1.2-1.3,2.9-2,4.7-1.9c2.6,0,4.4,1.4,4.4,3.5c0,1.2-0.4,2.4-2.1,4l-3.9,3.7L204.2,279.5z"/>
	<path class="st8" d="M231,268.3V281h-1.8v-11.1h-2.9v-1.6H231z"/>
	<g class="st14">
		<path class="st5" d="M177.2,256.8v0.5h-3.5v-4.9h3.4v0.4h-2.8v1.8h2.5v0.5h-2.5v1.8L177.2,256.8z"/>
		<path class="st5" d="M181.7,255.1v2.1h-0.5v-2.1c0.1-0.5-0.3-1.1-0.8-1.2c-0.1,0-0.2,0-0.3,0c-0.7,0-1.2,0.5-1.3,1.1
			c0,0.1,0,0.1,0,0.2v1.9h-0.5v-3.7h0.5v0.7c0.3-0.5,0.8-0.7,1.4-0.7c0.8-0.1,1.5,0.5,1.5,1.3C181.7,254.9,181.7,255,181.7,255.1z"
			/>
		<path class="st5" d="M185,257c-0.2,0.2-0.5,0.3-0.8,0.3c-0.6,0-1-0.4-1.1-0.9c0-0.1,0-0.1,0-0.2V254h-0.7v-0.4h0.7v-0.8h0.5v0.8
			h1.1v0.4h-1.1v2.2c0,0.4,0.2,0.7,0.6,0.7c0.2,0,0.4-0.1,0.6-0.2L185,257z"/>
		<path class="st5" d="M189,255.6h-3.1c0,0.8,0.7,1.3,1.4,1.3c0.4,0,0.8-0.2,1.1-0.5l0.3,0.3c-0.8,0.8-2.1,0.7-2.8-0.1
			c-0.3-0.3-0.5-0.7-0.5-1.2c-0.1-1,0.7-1.8,1.7-1.9c0,0,0.1,0,0.1,0c1,0,1.8,0.7,1.8,1.7c0,0.1,0,0.1,0,0.2
			C189,255.4,189,255.5,189,255.6z M185.9,255.2h2.6c-0.1-0.7-0.7-1.3-1.4-1.2C186.5,254,186,254.5,185.9,255.2z"/>
		<path class="st5" d="M191.9,253.5v0.5h-0.1c-0.7,0-1.2,0.5-1.3,1.1c0,0.1,0,0.2,0,0.2v1.9H190v-3.7h0.5v0.7
			C190.7,253.8,191.3,253.5,191.9,253.5z"/>
		<path class="st5" d="M197.8,253.6l-1.8,4.1c-0.3,0.7-0.7,1-1.2,1c-0.3,0-0.7-0.1-0.9-0.3l0.2-0.4c0.2,0.2,0.4,0.3,0.7,0.3
			c0.3,0,0.6-0.1,0.8-0.6l0.2-0.4l-1.6-3.7h0.5l1.4,3.1l1.4-3.1L197.8,253.6z"/>
		<path class="st5" d="M198,255.4c0-1,0.8-1.9,1.9-1.9c1,0,1.9,0.8,1.9,1.9s-0.8,1.9-1.9,1.9c0,0,0,0,0,0c-1,0-1.8-0.7-1.9-1.7
			C198,255.5,198,255.4,198,255.4z M201.2,255.4c0-0.8-0.7-1.3-1.4-1.3c-0.8,0-1.3,0.7-1.3,1.4c0,0.7,0.6,1.3,1.4,1.3
			C200.6,256.8,201.2,256.2,201.2,255.4C201.2,255.5,201.2,255.4,201.2,255.4L201.2,255.4z"/>
		<path class="st5" d="M206.1,253.6v3.7h-0.5v-0.7c-0.3,0.5-0.8,0.7-1.3,0.7c-0.8,0.1-1.5-0.5-1.6-1.3c0-0.1,0-0.2,0-0.3v-2.1h0.5
			v2.1c-0.1,0.5,0.3,1.1,0.8,1.2c0.1,0,0.2,0,0.3,0c0.7,0,1.2-0.5,1.3-1.1c0-0.1,0-0.1,0-0.2v-1.9L206.1,253.6z"/>
		<path class="st5" d="M209.3,253.5v0.5h-0.1c-0.7,0-1.2,0.5-1.3,1.1c0,0.1,0,0.2,0,0.2v1.9h-0.5v-3.7h0.5v0.7
			C208.2,253.8,208.7,253.5,209.3,253.5z"/>
		<path class="st5" d="M211.8,254.8c0-1.4,1.1-2.6,2.5-2.7s2.6,1.1,2.7,2.5s-1.1,2.6-2.5,2.7c0,0-0.1,0-0.1,0
			c-1.4,0.1-2.5-1-2.6-2.4C211.8,254.9,211.7,254.8,211.8,254.8z M216.4,254.8c0-1.1-0.9-2.1-2-2.1c-1.1,0-2.1,0.9-2.1,2
			c0,1.1,0.9,2.1,2,2.1c0,0,0.1,0,0.1,0C215.5,256.8,216.4,255.9,216.4,254.8z"/>
		<path class="st5" d="M218.9,252.8h-1.7v-0.4h4v0.4h-1.7v4.5H219L218.9,252.8z"/>
		<path class="st5" d="M225.9,254c0,1-0.8,1.7-2,1.7h-1.3v1.6H222v-4.9h1.8C225.1,252.3,225.9,253,225.9,254z M225.3,254
			c0-0.8-0.5-1.2-1.5-1.2h-1.3v2.4h1.3C224.8,255.2,225.3,254.8,225.3,254z"/>
	</g>
	<g class="st14">
		<path class="st5" d="M180.1,298.9l0.2-0.4c0.4,0.4,1,0.6,1.6,0.6c0.9,0,1.3-0.4,1.3-0.9c0-1.3-3-0.5-3-2.3c0-0.7,0.6-1.3,1.8-1.3
			c0.5,0,1.1,0.1,1.5,0.4l-0.2,0.4c-0.4-0.3-0.9-0.4-1.4-0.4c-0.9,0-1.3,0.4-1.3,0.9c0,1.3,3,0.5,3,2.3c0,0.7-0.6,1.3-1.8,1.3
			C181.3,299.6,180.7,299.3,180.1,298.9z"/>
		<path class="st5" d="M188,297.8h-3.1c0,0.8,0.7,1.3,1.4,1.3c0.4,0,0.8-0.2,1.1-0.5l0.3,0.3c-0.4,0.4-0.9,0.6-1.4,0.6
			c-1,0.1-1.9-0.7-1.9-1.7c0-0.1,0-0.1,0-0.2c0-1,0.7-1.8,1.7-1.9c0,0,0.1,0,0.1,0c1,0,1.8,0.7,1.8,1.7c0,0.1,0,0.1,0,0.2
			C188,297.6,188,297.8,188,297.8z M184.9,297.4h2.6c-0.1-0.7-0.7-1.3-1.4-1.2C185.5,296.3,185,296.8,184.9,297.4z"/>
		<path class="st5" d="M192.4,297.4v2.1h-0.5v-2.1c0.1-0.5-0.3-1.1-0.8-1.2c-0.1,0-0.2,0-0.3,0c-0.7,0-1.2,0.5-1.3,1.1
			c0,0.1,0,0.1,0,0.2v1.9H189v-3.7h0.5v0.7c0.3-0.5,0.8-0.7,1.4-0.7c0.8-0.1,1.5,0.5,1.6,1.3C192.4,297.1,192.4,297.2,192.4,297.4z"
			/>
		<path class="st5" d="M197.2,294.3v5.2h-0.5v-0.7c-0.3,0.5-0.8,0.8-1.4,0.8c-1-0.1-1.8-1-1.7-2c0.1-0.9,0.8-1.7,1.7-1.7
			c0.6,0,1.1,0.3,1.4,0.7v-2.2H197.2z M196.7,297.6c0-0.8-0.7-1.3-1.4-1.3c-0.8,0-1.3,0.7-1.3,1.4c0,0.7,0.6,1.3,1.4,1.3
			c0.7,0,1.4-0.6,1.4-1.3C196.7,297.7,196.7,297.7,196.7,297.6z"/>
		<path class="st5" d="M203.2,297.2v2.3h-0.5v-0.6c-0.3,0.4-0.8,0.6-1.3,0.6c-0.8,0-1.3-0.4-1.3-1.1s0.4-1,1.4-1h1.2v-0.2
			c0.1-0.5-0.3-0.9-0.8-1c-0.1,0-0.1,0-0.2,0c-0.4,0-0.9,0.1-1.2,0.4l-0.2-0.4c0.4-0.3,0.9-0.5,1.5-0.5c0.7-0.1,1.4,0.4,1.5,1.1
			C203.2,297,203.2,297.1,203.2,297.2z M202.7,298.4v-0.6h-1.2c-0.7,0-0.9,0.3-0.9,0.7s0.3,0.7,0.9,0.7
			C202,299.2,202.5,298.9,202.7,298.4z"/>
		<path class="st5" d="M207.9,295.8v3.2c0.1,0.9-0.5,1.7-1.3,1.8c-0.2,0-0.3,0-0.5,0c-0.6,0-1.2-0.2-1.7-0.6l0.2-0.4
			c0.4,0.3,0.9,0.5,1.4,0.5c0.9,0,1.4-0.4,1.4-1.3v-0.5c-0.3,0.5-0.9,0.7-1.4,0.7c-1,0.1-1.8-0.7-1.9-1.7c-0.1-1,0.7-1.8,1.7-1.9
			c0.1,0,0.2,0,0.3,0c0.6,0,1.1,0.2,1.4,0.7v-0.7L207.9,295.8z M207.4,297.6c0-0.8-0.6-1.4-1.3-1.4c-0.8,0-1.4,0.6-1.4,1.3
			c0,0.8,0.6,1.4,1.3,1.4c0,0,0,0,0,0c0.7,0,1.4-0.5,1.4-1.2C207.5,297.6,207.5,297.6,207.4,297.6z"/>
		<path class="st5" d="M212.1,297.2v2.3h-0.5v-0.6c-0.3,0.4-0.8,0.6-1.3,0.6c-0.8,0-1.4-0.4-1.4-1.1s0.4-1,1.4-1h1.2v-0.2
			c0-0.6-0.4-1-1-1c-0.4,0-0.9,0.2-1.2,0.4l-0.2-0.4c0.4-0.3,1-0.5,1.5-0.5c0.7-0.1,1.4,0.4,1.4,1.2
			C212.1,297,212.1,297.1,212.1,297.2z M211.6,298.4v-0.6h-1.1c-0.7,0-0.9,0.3-0.9,0.7s0.4,0.7,0.9,0.7
			C211,299.2,211.4,298.9,211.6,298.4z"/>
		<path class="st5" d="M213.3,294.6c0-0.2,0.2-0.3,0.4-0.3c0.2,0,0.3,0.1,0.3,0.3c0,0.2-0.2,0.3-0.4,0.3
			C213.5,294.9,213.4,294.8,213.3,294.6z M213.4,295.8h0.5v3.7h-0.5V295.8z"/>
		<path class="st5" d="M218.7,297.4v2.1h-0.5v-2.1c0.1-0.5-0.3-1.1-0.8-1.2c-0.1,0-0.2,0-0.3,0c-0.7,0-1.2,0.5-1.3,1.1
			c0,0.1,0,0.1,0,0.2v1.9h-0.5v-3.7h0.5v0.7c0.3-0.5,0.8-0.7,1.4-0.7c0.8-0.1,1.5,0.5,1.5,1.3C218.7,297.2,218.7,297.3,218.7,297.4z
			"/>
	</g>
	<path class="st12" d="M227.5,324.5h-55.7c-4.6,0-8.3-3.7-8.3-8.3l0,0c0-4.6,3.7-8.3,8.3-8.3h55.7c4.6,0,8.3,3.7,8.3,8.3l0,0
		C235.8,320.8,232,324.5,227.5,324.5z"/>
	<path class="st5" d="M177.9,315.8c0-1.6,1.2-2.9,2.8-2.9c0.1,0,0.1,0,0.2,0c0.8,0,1.6,0.3,2.1,0.9l-0.5,0.5c-0.4-0.4-1-0.7-1.6-0.7
		c-1.2,0-2.1,1-2.1,2.2c0,1.2,1,2.1,2.2,2.1c0.6,0,1.1-0.2,1.5-0.7l0.5,0.5c-0.6,0.6-1.3,0.9-2.1,0.9c-1.6,0.1-2.9-1.1-3-2.7
		C177.9,315.9,177.9,315.8,177.9,315.8z"/>
	<path class="st5" d="M183.5,315.8c-0.1-1.7,1.2-3.1,2.9-3.1s3.1,1.2,3.1,2.9c0.1,1.7-1.2,3.1-2.9,3.1c0,0-0.1,0-0.1,0
		c-1.6,0.1-2.9-1.1-3-2.7C183.5,315.9,183.5,315.8,183.5,315.8z M188.7,315.8c0-1.2-0.9-2.2-2.1-2.2s-2.2,0.9-2.2,2.1
		s0.9,2.2,2.1,2.2c0,0,0,0,0,0c1.2,0,2.1-0.9,2.2-2C188.7,315.8,188.7,315.8,188.7,315.8z"/>
	<path class="st5" d="M195.5,313v5.6h-0.7l-3.4-4.2v4.2h-0.8V313h0.7l3.4,4.2V313H195.5z"/>
	<path class="st5" d="M198.3,313.6h-1.9V313h4.6v0.7h-1.9v4.9h-0.8L198.3,313.6z"/>
	<path class="st5" d="M201.9,313h0.8v5.6h-0.8V313z"/>
	<path class="st5" d="M209.2,313v5.6h-0.7l-3.4-4.2v4.2h-0.8V313h0.6l3.4,4.2V313H209.2z"/>
	<path class="st5" d="M210.8,316.1V313h0.8v3.1c0,1.2,0.6,1.8,1.6,1.8s1.6-0.6,1.6-1.8V313h0.8v3.2c0,1.3-1.1,2.4-2.4,2.4
		C211.9,318.5,210.8,317.5,210.8,316.1L210.8,316.1z"/>
	<path class="st5" d="M221.3,317.9v0.7h-4.1V313h4v0.7H218v1.7h2.8v0.7H218v1.8L221.3,317.9z"/>
	<path class="st15" d="M296.5,186.5c-32.7,32.8-116.7,105.7-211.9,100.3V186.5H296.5z"/>
	<path class="st15" d="M321.1,246.8v96.8H178.7c5.5-19.5,16.4-46.3,37.6-65.4C254.4,243.7,298.6,243.8,321.1,246.8z"/>
</g>
<g id="freepik--speech-bubble--inject-8">
	<polygon class="st6" points="351.2,171.1 354.5,185.8 357.9,171.1 	"/>
	<polygon class="st16" points="351.2,171.1 354.5,185.8 357.9,171.1 	"/>
	<path class="st6" d="M317.4,129.6h74.3c4.7,0,8.6,3.8,8.6,8.6v27.6c0,4.7-3.8,8.6-8.6,8.6h-74.3c-4.7,0-8.6-3.8-8.6-8.6v-27.6
		C308.8,133.4,312.7,129.6,317.4,129.6z"/>
	<path class="st16" d="M317.4,129.6h74.3c4.7,0,8.6,3.8,8.6,8.6v27.6c0,4.7-3.8,8.6-8.6,8.6h-74.3c-4.7,0-8.6-3.8-8.6-8.6v-27.6
		C308.8,133.4,312.7,129.6,317.4,129.6z"/>
	<g class="st17">
		<path d="M327.1,146v1.9h-0.8V146l-2.2-3.6h0.9l1.8,3l1.8-3h0.8L327.1,146z"/>
		<path d="M329.1,145.8c0-1.2,0.9-2.2,2.2-2.2c1.2,0,2.2,0.9,2.2,2.2s-0.9,2.2-2.2,2.2c0,0,0,0,0,0c-1.2,0.1-2.2-0.8-2.2-2
			C329.1,145.9,329.1,145.9,329.1,145.8z M332.8,145.8c0.1-0.8-0.5-1.5-1.3-1.5c-0.8-0.1-1.5,0.5-1.5,1.3c0,0.1,0,0.2,0,0.2
			c-0.1,0.8,0.5,1.5,1.3,1.5c0.8,0.1,1.5-0.5,1.5-1.3C332.8,146,332.8,145.9,332.8,145.8z"/>
		<path d="M338.5,143.7v4.2h-0.7v-0.6c-0.3,0.5-0.9,0.7-1.4,0.7c-0.9,0.1-1.7-0.6-1.8-1.5c0-0.1,0-0.2,0-0.4v-2.4h0.8v2.4
			c0,0.8,0.4,1.2,1.1,1.2c0.7,0,1.3-0.5,1.3-1.2c0-0.1,0-0.2,0-0.2v-2.2L338.5,143.7z"/>
		<path d="M342.3,143.7v0.8h-0.2c-0.7,0-1.3,0.5-1.3,1.2c0,0.1,0,0.2,0,0.3v2.1H340v-4.2h0.7v0.7
			C341.1,143.9,341.7,143.6,342.3,143.7z"/>
		<path d="M345.1,145.1c-0.1-1.7,1.2-3.1,2.9-3.1c1.7-0.1,3.1,1.2,3.1,2.9c0.1,1.7-1.2,3.1-2.9,3.1c0,0-0.1,0-0.1,0
			c-1.6,0.1-2.9-1.1-3-2.7C345.1,145.3,345.1,145.2,345.1,145.1z M350.3,145.1c0-1.2-0.9-2.2-2.1-2.2s-2.2,0.9-2.2,2.1
			s0.9,2.2,2.1,2.2c0,0,0,0,0,0c1.2,0,2.1-0.9,2.2-2C350.3,145.2,350.3,145.2,350.3,145.1L350.3,145.1z"/>
		<path d="M353.3,143h-1.9v-0.7h4.6v0.7h-1.9v4.9h-0.8L353.3,143z"/>
		<path d="M361.4,144.3c0,1.2-0.9,1.9-2.3,1.9h-1.4v1.7h-0.8v-5.6h2.2C360.5,142.4,361.4,143.1,361.4,144.3z M360.6,144.3
			c0-0.8-0.5-1.3-1.6-1.3h-1.4v2.5h1.4C360.1,145.6,360.6,145.1,360.6,144.3L360.6,144.3z"/>
		<path d="M364.4,145.1c0.1-1.7,1.5-2.9,3.1-2.9c0.7,0,1.4,0.3,2,0.9l-0.5,0.5c-0.4-0.4-1-0.7-1.6-0.7c-1.2,0-2.1,1-2.1,2.2
			c0,1.2,1,2.1,2.1,2.1c0.6,0,1.2-0.2,1.6-0.7l0.5,0.5c-1.2,1.2-3.1,1.1-4.2,0C364.7,146.6,364.4,145.9,364.4,145.1L364.4,145.1z"/>
		<path d="M369.9,145.8c0-1.2,0.9-2.2,2.2-2.2c1.2,0,2.2,0.9,2.2,2.2s-0.9,2.2-2.2,2.2c0,0,0,0,0,0c-1.2,0.1-2.2-0.8-2.2-2
			C369.9,145.9,369.9,145.9,369.9,145.8z M373.6,145.8c0.1-0.8-0.5-1.5-1.3-1.5c-0.8-0.1-1.5,0.5-1.5,1.3c0,0.1,0,0.2,0,0.2
			c-0.1,0.8,0.5,1.5,1.3,1.5c0.8,0.1,1.5-0.5,1.5-1.3C373.6,146,373.6,145.9,373.6,145.8z"/>
		<path d="M379.4,142v5.9h-0.7v-0.7c-0.4,0.5-0.9,0.7-1.5,0.7c-1.2-0.1-2.1-1.1-2-2.3c0.1-1.1,0.9-1.9,2-2c0.6,0,1.1,0.2,1.5,0.7
			V142H379.4z M378.6,145.8c0-0.8-0.7-1.4-1.5-1.4c-0.8,0-1.4,0.7-1.4,1.5c0,0.8,0.7,1.4,1.4,1.4c0.8,0,1.4-0.6,1.4-1.4
			C378.6,145.9,378.6,145.9,378.6,145.8L378.6,145.8z"/>
		<path d="M384.7,146.1h-3.4c0.1,0.8,0.8,1.3,1.5,1.2c0.5,0,0.9-0.2,1.2-0.5l0.4,0.5c-0.9,0.9-2.4,0.9-3.3,0
			c-0.4-0.4-0.6-0.9-0.7-1.5c0-1.1,0.8-2.1,2-2.2c0,0,0.1,0,0.1,0c1.1-0.1,2,0.8,2.1,1.9c0,0.1,0,0.2,0,0.3
			C384.7,145.9,384.7,146,384.7,146.1z M381.2,145.5h2.8c-0.1-0.7-0.7-1.3-1.5-1.2C381.9,144.3,381.3,144.9,381.2,145.5L381.2,145.5
			z"/>
	</g>
	<g class="st17">
		<path d="M343,156.7c0,3.1-1.8,4.8-4.4,4.8c-0.8,0-1.6-0.2-2.3-0.5l0.5-1c0.5,0.3,1.2,0.5,1.8,0.4c1.9,0,3.1-1.2,3.1-3.5v-0.3
			c-0.6,0.8-1.6,1.3-2.7,1.2c-1.6,0.2-3-1-3.1-2.5c0-0.1,0-0.2,0-0.3c0-1.7,1.4-3,3.1-2.9c0.1,0,0.1,0,0.2,0
			C341.6,152.1,343,153.8,343,156.7z M341.4,155c0-0.9-0.8-1.8-2.2-1.8c-1-0.1-1.9,0.6-2,1.6c0,0.1,0,0.1,0,0.2
			c0,1.1,0.8,1.8,2.1,1.8C340.3,156.9,341.3,156.1,341.4,155C341.4,155,341.4,155,341.4,155z"/>
		<path d="M344.3,156.8c0-3,1.6-4.7,3.8-4.7s3.8,1.7,3.8,4.7s-1.6,4.7-3.8,4.7S344.3,159.8,344.3,156.8z M350.5,156.8
			c0-2.4-1-3.5-2.4-3.5s-2.5,1.2-2.5,3.5s1,3.5,2.5,3.5S350.5,159.2,350.5,156.8L350.5,156.8z"/>
		<path d="M359.5,160.3v1.1h-6.6v-0.9l3.8-3.6c1-0.9,1.1-1.5,1.1-2.1c0-0.9-0.7-1.5-2-1.5c-0.9-0.1-1.8,0.3-2.4,1l-0.9-0.8
			c0.9-0.9,2.1-1.5,3.4-1.4c1.9,0,3.2,1,3.2,2.6c0,1.1-0.6,2.2-1.5,2.9l-2.8,2.7L359.5,160.3z"/>
		<path d="M363.4,152.2v9.2h-1.3v-8.1H360v-1.1L363.4,152.2z"/>
		<path d="M365.4,156.8c0-3,1.6-4.7,3.8-4.7s3.8,1.7,3.8,4.7s-1.6,4.7-3.8,4.7S365.4,159.8,365.4,156.8z M371.6,156.8
			c0-2.4-1-3.5-2.4-3.5s-2.5,1.2-2.5,3.5s1,3.5,2.5,3.5S371.6,159.2,371.6,156.8z"/>
	</g>
</g>
<g id="freepik--Character--inject-8">
	<path class="st18" d="M346.3,214.1c6,4.1,12.6,7.1,19.7,8.9h0.1c-0.5,0-1,0.1-1.5,0.4c-0.4,0.3-0.8,0.7-1,1.1
		c-0.1,0.1-0.1,0.3-0.1,0.5c0.2-2.1-0.8-4.5-1.4-6.7c-1.1-3.6-2.5-7.3-3.9-10.9l3.9-2.1c3.2,4.9,13.8,20.4,6.6,24.9
		c-1.2,0.7-2.7,1-4.1,0.7c-7.9-1.2-15.5-4.1-22.1-8.6c-0.5-0.3-0.9-0.6-1.4-1L346.3,214.1L346.3,214.1z"/>
	<path class="st6" d="M345.2,213c3.5,0.4,6.8,1.8,9.6,3.9l-4,12.4C350.8,229.3,331.4,211.4,345.2,213z"/>
	<path class="st11" d="M345.2,223.4c1.8,2,3.7,4,5.6,5.8l1.6-5.1l2.4-7.3c-2.8-2.1-6.1-3.5-9.6-3.9
		C336.7,212,340.8,218.4,345.2,223.4z"/>
	<path class="st7" d="M345.2,223.4c1.8,2,3.7,4,5.6,5.8l1.6-5.1c-2.1-1.6-4.6-2.5-7.3-2.5C345.1,222.2,345.1,222.8,345.2,223.4z"/>
	<path class="st13" d="M302,194.7c0,0-9.3,30.9,10.3,35.1s21.7-10.1,21.7-10.1S317.9,195.3,302,194.7z"/>
	<path class="st13" d="M297.4,204.9c0,0-0.1,0-0.1,0c-0.1-0.1-0.2-0.2-0.1-0.3c0,0,0,0,0,0c0.6-1.1,1.7-1.8,2.9-2
		c0.1,0,0.2,0.1,0.2,0.2c0,0.1-0.1,0.2-0.2,0.3c0,0,0,0,0,0c-1.1,0.2-2,0.8-2.5,1.8C297.6,204.9,297.5,204.9,297.4,204.9z"/>
	<path class="st19" d="M300.2,208.8c-0.1,1.2-0.4,2.4-0.8,3.5c0.6,0.4,1.4,0.4,2,0L300.2,208.8z"/>
	<path class="st13" d="M298.3,207.4c0.2,0.6,0.7,0.9,1,0.7s0.5-0.7,0.3-1.2s-0.7-0.9-1-0.7S298.1,206.9,298.3,207.4z"/>
	<path class="st13" d="M298.8,206.1h-1.4C297.4,206.1,298.4,206.9,298.8,206.1z"/>
	<path class="st20" d="M318.2,212.6c0,0.1-0.1,0.2-0.1,0.2c-0.1,0.2-0.2,0.3-0.3,0.5c-0.6,1.1-1.4,2-2.3,2.8c-3,2.4-5.6,3.1-7.9,2.4
		l-0.3-0.1l0,0c-3.4-1.4-6-5.4-8.1-10.7c-0.9-2.1-1.5-4.3-1.7-6.6c0,0,0-0.1,0-0.1s0-0.2,0-0.3c-0.2-2.6,1-5.2,3.2-6.8
		c0.9-0.7,1.9-1.3,2.9-1.8C313.5,187.3,323.2,203.2,318.2,212.6z"/>
	<path class="st7" d="M317.8,213.4c-0.6,1.1-1.4,2-2.3,2.8c-3,2.4-5.6,3.1-7.9,2.4c2.2-0.5,4.2-1.7,5.7-3.4
		C314.5,213.9,316.1,213.2,317.8,213.4z"/>
	<path class="st13" d="M297.4,201.1c0,0,2.8,7.3,10.9,7.2c0,0,6.4,6,10.6,4.1c5.9-2.6,7-13.2,1.1-20.7
		C312.4,182.1,295.5,189,297.4,201.1z"/>
	<path class="st20" d="M304,207.8c-0.5-1.1-0.5-3.4,1.3-3.9s5,3.3,1.1,6.4C305.8,210.7,305.1,210.1,304,207.8z"/>
	<path class="st13" d="M306.2,187.7c0,0-7.6,1.5-10,6c-2.9,5.2-3,9.3,4.6,12c0,0,9.6-9,13.8-10c2.4-0.6,4.9-1,7.4-1.2
		C319.1,186.5,309.2,184.4,306.2,187.7z"/>
	<path class="st20" d="M313.5,216.3c0,0,5.2,3.6,6.5,9.5l16.2-9.5c0,0-12.7-2.9-14.9-7.8C321.4,208.6,312.9,209.6,313.5,216.3z"/>
	<path class="st6" d="M329.6,255.2c0,0-21-20.6-23.3-27.1c0,0,8.8-13.8,26.5-14.3s29.7,33,29.7,33L329.6,255.2z"/>
	<path class="st11" d="M362.5,246.8l-32.9,8.4c0,0-4.6-4.5-9.7-10c-1.6-1.7-3.2-3.5-4.8-5.3c-4.2-4.7-7.9-9.4-8.7-11.9
		c0,0,8.8-13.8,26.5-14.3S362.5,246.8,362.5,246.8z"/>
	<path class="st13" d="M310,204.7c0,0,3.1,10.2,13.9,13.6s8.1,14.4,18.5,13.1c5.6-0.7,10.3-12-6.7-22c-9.9-5.8-6.1-24.9-27.2-23.1
		C308.4,186.3,312.8,199.4,310,204.7z"/>
	<path class="st20" d="M320.5,410.7l-5-1.1c0.8-25,4.4-55.2,7.5-77.9c0.5-3.6,1-6.9,1.5-10.1c0.2-1.5,0.4-2.9,0.6-4.3
		c1-6.8,1.9-12.2,2.5-15.5c0.4-2.4,0.6-3.8,0.6-3.8l18,4.4l-1.3,4.5l-4.2,15l-0.5,1.7l-2.8,9.9l-4.8,16.8
		C332.9,375.8,320.5,410.7,320.5,410.7z"/>
	<path class="st20" d="M363.3,406.5l-5.1-0.3c-3.9-26.9-5.5-60.5-6.2-83.9c-0.1-3.6-0.2-7-0.3-10.1c0-0.1,0-0.3,0-0.5
		c-0.1-6.1-0.2-10.9-0.2-14c0-2.4,0-3.7,0-3.7l18.5,1.2l-0.8,7.7l-1.2,11.3l-0.2,2.2l-0.8,7.7l-2.2,20.7
		C369.5,370,363.3,406.5,363.3,406.5z"/>
	<path class="st13" d="M365.2,405.5c0-0.6-7.9-0.1-7.9-0.1s-4.9,4.9-9.6,6s-2.1,3.9,3.2,3.9h13C367.7,415.4,365.3,412.2,365.2,405.5
		z"/>
	<path class="st13" d="M352.5,407.2c-0.2-0.2-0.3-0.5-0.2-0.8c0.1-0.2,0.2-0.4,0.4-0.5c0.6-0.2,1.2-0.3,1.8-0.2
		c-0.6-0.3-1.2-0.8-1.2-1.2c0-0.3,0.2-0.5,0.5-0.7c0.3-0.1,0.7-0.1,1,0c1.1,0.5,1.7,2.3,1.8,2.4c0,0.1,0,0.1,0,0.2v0l0,0
		c0,0,0,0-0.1,0c-1,0.5-2.1,0.9-3.3,1C352.9,407.5,352.7,407.4,352.5,407.2z M352.9,406.2c-0.1,0.1-0.2,0.2-0.2,0.3
		c-0.1,0.3,0,0.4,0,0.4c0.4,0.3,1.8-0.1,3-0.6C354.8,406,353.8,406,352.9,406.2L352.9,406.2z M353.9,404.2c-0.1,0-0.3,0.1-0.3,0.3
		c0,0.4,1.1,1,2.3,1.4c-0.3-0.7-0.7-1.3-1.4-1.7c-0.1,0-0.2-0.1-0.3-0.1C354.1,404.1,354,404.2,353.9,404.2L353.9,404.2z"/>
	<path class="st13" d="M323,405.5c0-0.6-7.9-0.1-7.9-0.1s-4.9,4.9-9.6,6s-2.1,3.9,3.2,3.9h13C325.5,415.4,323.2,412.2,323,405.5z"/>
	<path class="st13" d="M310.3,407.2c-0.2-0.2-0.3-0.5-0.2-0.8c0.1-0.2,0.2-0.4,0.4-0.5c0.6-0.2,1.2-0.3,1.8-0.2
		c-0.6-0.3-1.2-0.8-1.2-1.2c0-0.3,0.2-0.5,0.5-0.7c0.3-0.1,0.7-0.1,1,0c1.1,0.5,1.7,2.3,1.8,2.4c0,0.1,0,0.1,0,0.2c0,0,0,0,0,0l0,0
		l-0.1,0c-1,0.5-2.1,0.9-3.3,1C310.7,407.5,310.5,407.4,310.3,407.2z M310.7,406.2c-0.1,0.1-0.2,0.2-0.2,0.3c-0.1,0.3,0,0.4,0,0.4
		c0.4,0.3,1.8-0.1,3-0.6C312.6,406,311.6,406,310.7,406.2L310.7,406.2z M311.7,404.2c-0.1,0-0.3,0.1-0.3,0.3c0,0.4,1.1,1,2.3,1.4
		c-0.3-0.7-0.7-1.3-1.4-1.7c-0.1,0-0.2-0.1-0.3-0.1C312,404.1,311.8,404.2,311.7,404.2L311.7,404.2z"/>
	<path class="st13" d="M325.4,305.5l4.3-30v-20.3c11.2-8.4,32.9-8.4,32.9-8.4s16.6,23.1,8.5,61l-20.9,3l-1.3-7.1l-2.6,7.1
		L325.4,305.5z"/>
	<path class="st21" d="M325.4,305.5l4.3-30v-20.3c11.2-8.4,32.9-8.4,32.9-8.4s16.6,23.1,8.5,61l-20.9,3l-1.3-7.1l-2.6,7.1
		L325.4,305.5z"/>
	<path class="st7" d="M348.8,303.8l4-12.5c0,0,4.2-1.3,9.6-9.7C362.5,281.7,361.6,295.9,348.8,303.8z"/>
	<path class="st7" d="M339.9,261l9.4-0.9c1.5,3.5,2,7.3,1.5,11.1l-6,3.6l-4.4-3.1C340.5,271.7,340.3,263.8,339.9,261z"/>
	<path class="st7" d="M362.5,258.7c1.3,3.1,2.2,6.3,2.8,9.6l3.3,1.4l1.8-2.2c0,0-1.2-6.5-3.3-9.7L362.5,258.7z"/>
	<polygon class="st13" points="325,303.8 347.1,310.3 345.7,313.3 324.7,306.8 	"/>
	<polygon class="st13" points="349.3,309.9 349.7,312.6 371.4,309.9 371.7,306.4 	"/>
	<path class="st13" d="M353.9,251c3.6-0.6,7.1-1,10.8-1.1l-1.3-2.2c-3.5-0.1-7,0.1-10.5,0.6L353.9,251z"/>
	<path class="st13" d="M333.9,253.7c-2.9,1.2-4.5,2.2-4.5,2.2v2.7c1.6-0.8,3.2-1.6,4.9-2.2L333.9,253.7z"/>
	<path class="st13" d="M335.3,256c5.6-2.2,11.3-3.8,17.2-4.8l-1-2.7c-5.7,1-11.3,2.6-16.6,4.8L335.3,256z"/>
	<path class="st20" d="M275.2,263.8l-5.7-2.3l-1,5.4c0,0,5.1,3.1,7.3-0.6L275.2,263.8z"/>
	<polygon class="st20" points="266.7,261.9 264.9,266 268.6,266.9 269.6,261.5 	"/>
	<path class="st20" d="M362.4,206.2l-0.7-6.1l-5.2,1.7c0,0-0.3,6,4,6.1L362.4,206.2z"/>
	<polygon class="st20" points="360.1,197.8 355.6,198.1 356.6,201.8 361.7,200.1 	"/>
	<path class="st7" d="M319.9,245.3c-1.6-1.7-3.2-3.5-4.8-5.3c-0.6-3.7-1-7-1-7C318,235.9,320.2,240.5,319.9,245.3z"/>
	<path class="st18" d="M314.7,231.3c-2.3,9.2-5.7,18.1-10.3,26.5c-4.5,8.5-21.6,9.6-30.2,9.8l-0.4-4.4c5.2-1.2,21.3-4.4,23.5-9.1
		c3.6-8.1,6.5-16.4,8.8-25L314.7,231.3L314.7,231.3z"/>
	<path class="st6" d="M309.8,223.7c-4.9,3.2-7.5,11.5-8.3,15.6l10.2,7.5l5.1-5C318.8,230.3,311.6,222.5,309.8,223.7z"/>
	<path class="st11" d="M309.5,223.7c-4.7,3.2-7.3,11.5-8.1,15.6l9.8,7.5l5-5C318.2,230.3,311.3,222.5,309.5,223.7z"/>
	<path class="st13" d="M359.4,208.1l-7.3,0.8c-0.4,0-0.7-0.3-0.8-0.7c0,0,0,0,0-0.1l-0.4-15.4c0-0.4,0.3-0.9,0.7-0.9l7.2-0.8
		c0.4,0,0.7,0.3,0.8,0.7c0,0,0,0.1,0,0.1l0.4,15.4C360.1,207.7,359.8,208.1,359.4,208.1z"/>
	<path class="st11" d="M359.4,208.1l-7.3,0.8c-0.4,0-0.7-0.3-0.8-0.7c0,0,0,0,0-0.1l-0.4-15.4c0-0.4,0.3-0.9,0.7-0.9l7.2-0.8
		c0.4,0,0.7,0.3,0.8,0.7c0,0,0,0.1,0,0.1l0.4,15.4C360.1,207.7,359.8,208.1,359.4,208.1z"/>
	<path class="st13" d="M358.8,208.2l-7.2,0.8c-0.4,0-0.7-0.3-0.8-0.7c0,0,0-0.1,0-0.1l-0.4-15.4c0-0.4,0.3-0.8,0.7-0.9l7.2-0.8
		c0.4,0,0.7,0.3,0.8,0.7c0,0,0,0,0,0.1l0.4,15.4C359.5,207.7,359.2,208.1,358.8,208.2z"/>
	<path class="st16" d="M358.8,208.2l-7.2,0.8c-0.4,0-0.7-0.3-0.8-0.7c0,0,0-0.1,0-0.1l-0.4-15.4c0-0.4,0.3-0.8,0.7-0.9l7.2-0.8
		c0.4,0,0.7,0.3,0.8,0.7c0,0,0,0,0,0.1l0.4,15.4C359.5,207.7,359.2,208.1,358.8,208.2z"/>
	<path class="st6" d="M358.3,191.4l-1.9,0.2l-0.2,0.6l-2.9,0.3l-0.3-0.5l-1.9,0.2c-0.3,0.1-0.5,0.3-0.5,0.6l0.4,15.4
		c0,0.3,0.2,0.5,0.4,0.5c0,0,0,0,0.1,0l7.2-0.8c0.3-0.1,0.5-0.3,0.5-0.6l-0.4-15.4C358.8,191.7,358.6,191.5,358.3,191.4
		C358.3,191.4,358.3,191.4,358.3,191.4z"/>
	<path class="st22" d="M357.3,197l-5.3,0.6c-0.3,0-0.5-0.2-0.5-0.4c0,0,0,0,0,0v-1.5c0-0.3,0.2-0.5,0.5-0.6l5.3-0.6
		c0.3,0,0.5,0.2,0.5,0.5c0,0,0,0,0,0l0,1.5C357.8,196.7,357.6,197,357.3,197z"/>
</g>
</svg>
