<svg xmlns="http://www.w3.org/2000/svg" xmlns:xlink="http://www.w3.org/1999/xlink" width="600" height="689" viewBox="0 0 600 689" fill="none"><g opacity="1" transform="translate(0 0)  rotate(0 299.5 344.5)"><path id="Vector 1505" fill-rule="evenodd" style="fill:#DDE4FF" transform="translate(0 85)  rotate(0 299.5 231)" opacity="0.5" d="M213.6,445.92C244.2,459 336.87,466.55 383.46,459C447.76,448.59 499.62,441.66 527.1,400.96C561.44,350.08 580.8,367.09 598.38,276.36C603.34,250.73 578.51,155.18 527.1,138.81C516.61,135.47 572.04,86.66 541.44,40.14C510.85,-6.38 454.65,-4.72 407.82,6.91C360.98,18.54 328.5,33.8 306.65,57.06C284.79,80.32 267.3,116.66 239.83,123.93C212.35,131.2 115.55,137.01 86.2,155.18C56.85,173.35 -1.23,231.5 0.02,293.28C1.27,355.06 8.76,398.67 31.87,425.57C54.98,452.46 145.65,416.86 213.6,445.92Z " /><path id="Vector 1501" fill-rule="evenodd" style="fill:#DDE4FF" transform="translate(58 311)  rotate(0 248 189)" opacity="1" d="M267.86,43.96C248.77,63.15 233.5,93.13 209.5,99.12C185.49,105.12 100.94,109.91 75.3,124.91C49.66,139.89 -1.07,187.86 0.01,238.82C1.11,289.79 7.65,325.76 27.84,347.95C48.02,370.13 127.23,340.77 186.59,364.73C213.31,375.52 294.26,381.75 334.96,375.52C391.14,366.94 436.43,328.76 460.44,295.18C490.44,253.21 494.8,219.64 495.9,198.05C496.99,176.47 489.35,166.88 487.17,157.28C484.98,147.69 497.53,87.13 470.8,48.76C444.07,10.39 397.16,-7 356.24,2.59C315.33,12.19 286.96,24.78 267.86,43.96Z " /><path id="Vector 1503" fill-rule="evenodd" style="fill:#728DFF" transform="translate(121 546)  rotate(0 43 62.5)" opacity="1" d="M25.81,43.31C15.98,58.31 4.51,104.02 0,125L29.5,125C43.02,112.5 72.26,78.13 81.11,40.63C89.96,3.13 84.8,-1.78 81.11,0.45C66.78,8.49 35.64,28.31 25.81,43.31Z " /><path  id="Vector 1508" style="stroke:#FFFFFF; stroke-width:2; stroke-opacity:0.6; stroke-dasharray:0 0" transform="translate(134 551)  rotate(0 34.5 61)" d="M69,0C62.48,6.87 40.26,31.94 35.65,51.75C26.83,89.61 11.88,104.47 0,122 " /><path id="Vector 1504" fill-rule="evenodd" style="fill:#8FA4FF" transform="translate(143 619)  rotate(0 29 26.5)" opacity="1" d="M25.87,53C35.72,39.31 55.92,10.07 57.89,2.65C60.36,-6.62 19.71,10.6 9.85,21.2C1.97,29.68 0,45.93 0,53C1.97,53 18.07,53 25.87,53Z " /><path id="Vector 1502" fill-rule="evenodd" style="fill:#A6B6F9" transform="translate(28 417)  rotate(0 66 128.5)" opacity="1" d="M6.74,153.93C15.57,187.13 63.99,243.17 84.03,257L118.38,257C127.78,232.01 141.69,167.32 122.06,108.42C102.43,49.53 46,11.6 20.23,0C-3.08,34.8 -4.3,112.44 6.74,153.93Z " /><g opacity="1" transform="translate(401 559)  rotate(0 83 64)"><path id="Vector 475" fill-rule="evenodd" style="fill:#237A57" transform="translate(-0.3180785982808061 0.1573417463723672)  rotate(0 12.27556705575214 12.878749171361012)" opacity="1" d="M8.15,7.41C10.58,10.04 -1.61,17.73 0.18,21.67C1.98,25.6 5.46,26.09 8.15,25.6C10.84,25.11 21.16,24.62 22.51,21.67C23.86,18.72 26.1,18.72 22.96,11.83C19.82,4.95 21.27,-1.26 13.64,0.22C13.19,0.71 4.22,3.17 8.15,7.41Z " /><path  id="Vector 475" style="stroke:#145F3B; stroke-width:1.5; stroke-opacity:1; stroke-dasharray:0 0" transform="translate(-0.3180785982808061 0.1573417463723672)  rotate(0 12.27556705575214 12.878749171361012)" d="M8.15,7.41C10.58,10.04 -1.61,17.73 0.18,21.67C1.98,25.6 5.46,26.09 8.15,25.6C10.84,25.11 21.16,24.62 22.51,21.67C23.86,18.72 26.1,18.72 22.96,11.83C19.82,4.95 21.27,-1.26 13.64,0.22C13.19,0.71 4.22,3.17 8.15,7.41Z " /><path id="Vector 476" fill-rule="evenodd" style="fill:#237A57" transform="translate(33.78920634505056 0.1573417463723672)  rotate(0 12.27556705575214 12.878749171361012)" opacity="1" d="M8.15,7.41C10.58,10.04 -1.61,17.73 0.18,21.67C1.98,25.6 5.46,26.09 8.15,25.6C10.84,25.11 21.16,24.62 22.51,21.67C23.86,18.72 26.1,18.72 22.96,11.83C19.82,4.95 21.27,-1.26 13.64,0.22C13.19,0.71 4.22,3.17 8.15,7.41Z " /><path  id="Vector 476" style="stroke:#145F3B; stroke-width:1.5; stroke-opacity:1; stroke-dasharray:0 0" transform="translate(33.78920634505056 0.1573417463723672)  rotate(0 12.27556705575214 12.878749171361012)" d="M8.15,7.41C10.58,10.04 -1.61,17.73 0.18,21.67C1.98,25.6 5.46,26.09 8.15,25.6C10.84,25.11 21.16,24.62 22.51,21.67C23.86,18.72 26.1,18.72 22.96,11.83C19.82,4.95 21.27,-1.26 13.64,0.22C13.19,0.71 4.22,3.17 8.15,7.41Z " /><path id="Vector 485" fill-rule="evenodd" style="fill:#237A57" transform="translate(85.84769389013502 53.25393920724696)  rotate(63.35 12.27556705575214 12.878749171361012)" opacity="1" d="M16.4,18.35C13.97,15.72 26.16,8.02 24.37,4.09C22.58,0.16 19.09,-0.33 16.4,0.16C13.71,0.65 3.39,1.14 2.04,4.09C0.7,7.04 -1.55,7.04 1.59,13.92C4.73,20.81 3.28,27.01 10.91,25.54C11.36,25.05 20.33,22.59 16.4,18.35Z " /><path  id="Vector 485" style="stroke:#145F3B; stroke-width:1.5; stroke-opacity:1; stroke-dasharray:0 0" transform="translate(85.84769389013502 53.25393920724696)  rotate(63.35 12.27556705575214 12.878749171361012)" d="M16.4,18.35C13.97,15.72 26.16,8.02 24.37,4.09C22.58,0.16 19.09,-0.33 16.4,0.16C13.71,0.65 3.39,1.14 2.04,4.09C0.7,7.04 -1.55,7.04 1.59,13.92C4.73,20.81 3.28,27.01 10.91,25.54C11.36,25.05 20.33,22.59 16.4,18.35Z " /><path  id="Vector 482" style="stroke:#184332; stroke-width:2; stroke-opacity:1; stroke-dasharray:0 0" transform="translate(40.969687385751854 18.349934792856175)  rotate(0 4.037110882990048 10.079566846591511)" d="M0,20.16L8.07,0 " /><path  id="Vector 486" style="stroke:#184332; stroke-width:2; stroke-opacity:1; stroke-dasharray:0 0" transform="translate(87.6428141503103 70.45907780134564)  rotate(0 4.037110882990048 10.079566846591511)" d="M0,20.16L8.07,0 " /><path id="Vector 477" fill-rule="evenodd" style="fill:#237A57" transform="translate(8.657522702595827 33.58853274025614)  rotate(0 12.27556705575214 12.878749171361012)" opacity="1" d="M8.15,7.41C10.58,10.04 -1.61,17.73 0.18,21.67C1.98,25.6 5.46,26.09 8.15,25.6C10.84,25.11 21.16,24.62 22.51,21.67C23.86,18.72 26.1,18.72 22.96,11.83C19.82,4.95 21.27,-1.26 13.64,0.22C13.19,0.71 4.22,3.17 8.15,7.41Z " /><path  id="Vector 477" style="stroke:#145F3B; stroke-width:1.5; stroke-opacity:1; stroke-dasharray:0 0" transform="translate(8.657522702595827 33.58853274025614)  rotate(0 12.27556705575214 12.878749171361012)" d="M8.15,7.41C10.58,10.04 -1.61,17.73 0.18,21.67C1.98,25.6 5.46,26.09 8.15,25.6C10.84,25.11 21.16,24.62 22.51,21.67C23.86,18.72 26.1,18.72 22.96,11.83C19.82,4.95 21.27,-1.26 13.64,0.22C13.19,0.71 4.22,3.17 8.15,7.41Z " /><path id="Vector 487" fill-rule="evenodd" style="fill:#237A57" transform="translate(42.76480764592708 86.68513020113039)  rotate(0 12.27556705575214 12.878749171361012)" opacity="1" d="M8.15,7.41C10.58,10.04 -1.61,17.73 0.18,21.67C1.98,25.6 5.46,26.09 8.15,25.6C10.84,25.11 21.16,24.62 22.51,21.67C23.86,18.72 26.1,18.72 22.96,11.83C19.82,4.95 21.27,-1.26 13.64,0.22C13.19,0.71 4.22,3.17 8.15,7.41Z " /><path  id="Vector 487" style="stroke:#145F3B; stroke-width:1.5; stroke-opacity:1; stroke-dasharray:0 0" transform="translate(42.76480764592708 86.68513020113039)  rotate(0 12.27556705575214 12.878749171361012)" d="M8.15,7.41C10.58,10.04 -1.61,17.73 0.18,21.67C1.98,25.6 5.46,26.09 8.15,25.6C10.84,25.11 21.16,24.62 22.51,21.67C23.86,18.72 26.1,18.72 22.96,11.83C19.82,4.95 21.27,-1.26 13.64,0.22C13.19,0.71 4.22,3.17 8.15,7.41Z " /><path id="Vector 478" fill-rule="evenodd" style="fill:#237A57" transform="translate(25.080963380795595 62.46739134348354)  rotate(-81.48 12.27556705575214 12.878749171361012)" opacity="1" d="M8.15,7.41C10.58,10.04 -1.61,17.73 0.18,21.67C1.98,25.6 5.46,26.09 8.15,25.6C10.84,25.11 21.16,24.62 22.51,21.67C23.86,18.72 26.1,18.72 22.96,11.83C19.82,4.95 21.27,-1.26 13.64,0.22C13.19,0.71 4.22,3.17 8.15,7.41Z " /><path  id="Vector 478" style="stroke:#145F3B; stroke-width:1.5; stroke-opacity:1; stroke-dasharray:0 0" transform="translate(25.080963380795595 62.46739134348354)  rotate(-81.48 12.27556705575214 12.878749171361012)" d="M8.15,7.41C10.58,10.04 -1.61,17.73 0.18,21.67C1.98,25.6 5.46,26.09 8.15,25.6C10.84,25.11 21.16,24.62 22.51,21.67C23.86,18.72 26.1,18.72 22.96,11.83C19.82,4.95 21.27,-1.26 13.64,0.22C13.19,0.71 4.22,3.17 8.15,7.41Z " /><path id="Vector 483" fill-rule="evenodd" style="fill:#237A57" transform="translate(59.49380070883751 27.479704348382484)  rotate(13.26 12.27556705575214 12.878749171361012)" opacity="1" d="M16.4,18.35C13.97,15.72 26.16,8.02 24.37,4.09C22.58,0.16 19.09,-0.33 16.4,0.16C13.71,0.65 3.39,1.14 2.04,4.09C0.7,7.04 -1.55,7.04 1.59,13.92C4.73,20.81 3.28,27.01 10.91,25.54C11.36,25.05 20.33,22.59 16.4,18.35Z " /><path  id="Vector 483" style="stroke:#145F3B; stroke-width:1.5; stroke-opacity:1; stroke-dasharray:0 0" transform="translate(59.49380070883751 27.479704348382484)  rotate(13.26 12.27556705575214 12.878749171361012)" d="M16.4,18.35C13.97,15.72 26.16,8.02 24.37,4.09C22.58,0.16 19.09,-0.33 16.4,0.16C13.71,0.65 3.39,1.14 2.04,4.09C0.7,7.04 -1.55,7.04 1.59,13.92C4.73,20.81 3.28,27.01 10.91,25.54C11.36,25.05 20.33,22.59 16.4,18.35Z " /><path id="Vector 490" fill-rule="evenodd" style="fill:#237A57" transform="translate(139.25825073756448 35.11992396726009)  rotate(80.46 12.27556705575214 12.878749171361012)" opacity="1" d="M16.4,18.35C13.97,15.72 26.16,8.02 24.37,4.09C22.58,0.16 19.09,-0.33 16.4,0.16C13.71,0.65 3.39,1.14 2.04,4.09C0.7,7.04 -1.55,7.04 1.59,13.92C4.73,20.81 3.28,27.01 10.91,25.54C11.36,25.05 20.33,22.59 16.4,18.35Z " /><path  id="Vector 490" style="stroke:#145F3B; stroke-width:1.5; stroke-opacity:1; stroke-dasharray:0 0" transform="translate(139.25825073756448 35.11992396726009)  rotate(80.46 12.27556705575214 12.878749171361012)" d="M16.4,18.35C13.97,15.72 26.16,8.02 24.37,4.09C22.58,0.16 19.09,-0.33 16.4,0.16C13.71,0.65 3.39,1.14 2.04,4.09C0.7,7.04 -1.55,7.04 1.59,13.92C4.73,20.81 3.28,27.01 10.91,25.54C11.36,25.05 20.33,22.59 16.4,18.35Z " /><path id="Vector 493" fill-rule="evenodd" style="fill:#237A57" transform="translate(96.70244235698237 33.4546406111192)  rotate(80.46 8.948865467214457 9.389185555729078)" opacity="1" d="M11.96,13.38C10.18,11.46 19.07,5.85 17.77,2.98C16.46,0.11 13.92,-0.24 11.96,0.11C9.99,0.47 2.47,0.83 1.49,2.98C0.51,5.13 -1.13,5.13 1.16,10.15C3.45,15.17 2.39,19.69 7.95,18.62C8.28,18.26 14.82,16.47 11.96,13.38Z " /><path  id="Vector 493" style="stroke:#145F3B; stroke-width:1.5; stroke-opacity:1; stroke-dasharray:0 0" transform="translate(96.70244235698237 33.4546406111192)  rotate(80.46 8.948865467214457 9.389185555729078)" d="M11.96,13.38C10.18,11.46 19.07,5.85 17.77,2.98C16.46,0.11 13.92,-0.24 11.96,0.11C9.99,0.47 2.47,0.83 1.49,2.98C0.51,5.13 -1.13,5.13 1.16,10.15C3.45,15.17 2.39,19.69 7.95,18.62C8.28,18.26 14.82,16.47 11.96,13.38Z " /><path  id="Vector 494" style="stroke:#184332; stroke-width:2; stroke-opacity:1; stroke-dasharray:0 0" transform="translate(110.07799799769305 45.387776620450495)  rotate(0 7.6273514033407075 13.518920913797086)" d="M15.25,27.04L0,0 " /><path id="Vector 492" fill-rule="evenodd" style="fill:#237A57" transform="translate(118.58763191188586 7.3540436874840225)  rotate(62.46 10.465169176341277 12.832723751970182)" opacity="1" d="M16.4,18.26C13.97,15.63 22.47,9.77 20.68,5.84C18.88,1.91 19.09,-0.43 16.4,0.06C13.71,0.56 3.39,1.05 2.04,4C0.7,6.95 -1.55,6.95 1.59,13.83C4.73,20.71 3.28,26.92 10.91,25.45C11.36,24.95 20.33,22.5 16.4,18.26Z " /><path  id="Vector 492" style="stroke:#145F3B; stroke-width:1.5; stroke-opacity:1; stroke-dasharray:0 0" transform="translate(118.58763191188586 7.3540436874840225)  rotate(62.46 10.465169176341277 12.832723751970182)" d="M16.4,18.26C13.97,15.63 22.47,9.77 20.68,5.84C18.88,1.91 19.09,-0.43 16.4,0.06C13.71,0.56 3.39,1.05 2.04,4C0.7,6.95 -1.55,6.95 1.59,13.83C4.73,20.71 3.28,26.92 10.91,25.45C11.36,24.95 20.33,22.5 16.4,18.26Z " /><path id="Vector 495" fill-rule="evenodd" style="fill:#237A57" transform="translate(136.37841951166627 74.21642567525134)  rotate(62.46 10.465169176341277 12.832723751970182)" opacity="1" d="M16.4,18.26C13.97,15.63 22.47,9.77 20.68,5.84C18.88,1.91 19.09,-0.43 16.4,0.06C13.71,0.56 3.39,1.05 2.04,4C0.7,6.95 -1.55,6.95 1.59,13.83C4.73,20.71 3.28,26.92 10.91,25.45C11.36,24.95 20.33,22.5 16.4,18.26Z " /><path  id="Vector 495" style="stroke:#145F3B; stroke-width:1.5; stroke-opacity:1; stroke-dasharray:0 0" transform="translate(136.37841951166627 74.21642567525134)  rotate(62.46 10.465169176341277 12.832723751970182)" d="M16.4,18.26C13.97,15.63 22.47,9.77 20.68,5.84C18.88,1.91 19.09,-0.43 16.4,0.06C13.71,0.56 3.39,1.05 2.04,4C0.7,6.95 -1.55,6.95 1.59,13.83C4.73,20.71 3.28,26.92 10.91,25.45C11.36,24.95 20.33,22.5 16.4,18.26Z " /><path  id="Vector 496" style="stroke:#184332; stroke-width:2; stroke-opacity:1; stroke-dasharray:0 0" transform="translate(121.75009909364155 89.6307570421435)  rotate(0 10.996066444776108 4.669488003651361)" d="M0,9.34L21.99,0 " /><path  id="Vector 484" style="stroke:#184332; stroke-width:2; stroke-opacity:1; stroke-dasharray:0 0" transform="translate(66.99511175348516 43.91496319994383)  rotate(0 2.020465143899466 10.815973556844773)" d="M0,21.63L4.04,0 " /><path  id="Vector 491" style="stroke:#184332; stroke-width:2; stroke-opacity:1; stroke-dasharray:0 0" transform="translate(134.34649615333979 42.59277842471647)  rotate(49.21 2.020465143899466 10.815973556844773)" d="M0,21.63L4.04,0 " /><path  id="Vector 481" style="stroke:#184332; stroke-width:2; stroke-opacity:1; stroke-dasharray:0 0" transform="translate(50.33486797713442 61.89834979465127)  rotate(55.47 7.913806764006982 14.623530979176978)" d="M15.83,0C8.2,9.01 0.72,28.07 0,29.25 " /><path  id="Vector 479" style="stroke:#184332; stroke-width:2; stroke-opacity:1; stroke-dasharray:0 0" transform="translate(14.042883483121841 16.868753114278775)  rotate(0 44.42731673693494 56.04640843092291)" d="M0,0C21.09,16.88 65.52,56.34 74.49,79.15C83.47,101.97 87.81,110.62 88.85,112.09 " /><path  id="Vector 480" style="stroke:#184332; stroke-width:2; stroke-opacity:1; stroke-dasharray:0 0" transform="translate(23.469174551446656 47.354317267149554)  rotate(0 12.79118670495144 0.7364067102532612)" d="M25.58,1.47L0,0 " /><path  id="Vector 488" style="stroke:#184332; stroke-width:2; stroke-opacity:1; stroke-dasharray:0 0" transform="translate(65.19999149330982 104.38399602142192)  rotate(0 12.79118670495144 0.7364067102532612)" d="M25.58,1.47L0,0 " /><path  id="Vector 489" style="stroke:#184332; stroke-width:2; stroke-opacity:1; stroke-dasharray:0 0" transform="translate(108.33634940484217 25.27885247569384)  rotate(-6.86 14.80783244404202 50.883193201079024)" d="M0,101.77C9.69,80.92 21.54,28.84 29.62,0 " /></g><path id="Vector 1506" fill-rule="evenodd" style="fill:#FFFFFF" transform="translate(459 40)  rotate(0 41 63)" opacity="1" d="M7.47,9.06C8.86,16.92 15.32,30.5 16.61,40.79C19.1,60.73 18.27,81.58 16.61,92.46C15.28,101.16 3.87,110.59 0,111.5C4.7,113.01 16.77,116.94 27.4,120.56C38.03,124.19 60.61,125.7 70.57,126C72.78,125.7 77.88,123.28 80.53,116.03C83.19,108.78 81.64,87.02 80.53,77.05C80.53,59.65 62.82,18.43 53.97,0L7.47,9.06Z " /><g opacity="1" transform="translate(245 582)  rotate(0 19 49)"><path id="Vector 465" fill-rule="evenodd" style="fill:#FD6C6C" transform="translate(16.006287540843005 22.513300491516247)  rotate(0 6.034659598036214 6.397533295325205)" opacity="1" d="M3.12,2.85C2.39,4.73 -0.79,6.34 0.19,8.48C1.16,10.63 1.65,13.04 3.12,12.77C4.59,12.51 10.22,12.24 10.96,10.63C11.69,9.02 12.91,9.02 11.2,5.26C9.49,1.51 8.75,-0.64 4.59,0.17C4.35,0.44 3.71,1.35 3.12,2.85Z " /><path  id="Vector 465" style="stroke:#FF4646; stroke-width:1.5; stroke-opacity:1; stroke-dasharray:0 0" transform="translate(16.006287540843005 22.513300491516247)  rotate(0 6.034659598036214 6.397533295325205)" d="M3.12,2.85C2.39,4.73 -0.79,6.34 0.19,8.48C1.16,10.63 1.65,13.04 3.12,12.77C4.59,12.51 10.22,12.24 10.96,10.63C11.69,9.02 12.91,9.02 11.2,5.26C9.49,1.51 8.75,-0.64 4.59,0.17C4.35,0.44 3.71,1.35 3.12,2.85Z " /><path id="Vector 467" fill-rule="evenodd" style="fill:#FD6C6C" transform="translate(-0.14979480073486684 22.513300491516247)  rotate(0 6.034659598036214 6.397533295325205)" opacity="1" d="M3.12,2.85C2.39,4.73 -0.79,6.34 0.19,8.48C1.16,10.63 1.65,13.04 3.12,12.77C4.59,12.51 10.22,12.24 10.96,10.63C11.69,9.02 12.91,9.02 11.2,5.26C9.49,1.51 8.75,-0.64 4.59,0.17C4.35,0.44 3.71,1.35 3.12,2.85Z " /><path  id="Vector 467" style="stroke:#FF4646; stroke-width:1.5; stroke-opacity:1; stroke-dasharray:0 0" transform="translate(-0.14979480073486684 22.513300491516247)  rotate(0 6.034659598036214 6.397533295325205)" d="M3.12,2.85C2.39,4.73 -0.79,6.34 0.19,8.48C1.16,10.63 1.65,13.04 3.12,12.77C4.59,12.51 10.22,12.24 10.96,10.63C11.69,9.02 12.91,9.02 11.2,5.26C9.49,1.51 8.75,-0.64 4.59,0.17C4.35,0.44 3.71,1.35 3.12,2.85Z " /><path id="Vector 468" fill-rule="evenodd" style="fill:#FD6C6C" transform="translate(10.132042944779869 -1.085187268872346)  rotate(0 6.034659598036214 6.397533295325205)" opacity="1" d="M3.12,2.85C2.39,4.73 -0.79,6.34 0.19,8.48C1.16,10.63 1.65,13.04 3.12,12.77C4.59,12.51 10.22,12.24 10.96,10.63C11.69,9.02 12.91,9.02 11.2,5.26C9.49,1.51 8.75,-0.64 4.59,0.17C4.35,0.44 3.71,1.35 3.12,2.85Z " /><path  id="Vector 468" style="stroke:#FF4646; stroke-width:1.5; stroke-opacity:1; stroke-dasharray:0 0" transform="translate(10.132042944779869 -1.085187268872346)  rotate(0 6.034659598036214 6.397533295325205)" d="M3.12,2.85C2.39,4.73 -0.79,6.34 0.19,8.48C1.16,10.63 1.65,13.04 3.12,12.77C4.59,12.51 10.22,12.24 10.96,10.63C11.69,9.02 12.91,9.02 11.2,5.26C9.49,1.51 8.75,-0.64 4.59,0.17C4.35,0.44 3.71,1.35 3.12,2.85Z " /><path id="Vector 469" fill-rule="evenodd" style="fill:#FD6C6C" transform="translate(25.310357655283724 9.64291957822661)  rotate(0 6.034659598036214 6.397533295325205)" opacity="1" d="M3.12,2.85C2.39,4.73 -0.79,6.34 0.19,8.48C1.16,10.63 1.65,13.04 3.12,12.77C4.59,12.51 10.22,12.24 10.96,10.63C11.69,9.02 12.91,9.02 11.2,5.26C9.49,1.51 8.75,-0.64 4.59,0.17C4.35,0.44 3.71,1.35 3.12,2.85Z " /><path  id="Vector 469" style="stroke:#FF4646; stroke-width:1.5; stroke-opacity:1; stroke-dasharray:0 0" transform="translate(25.310357655283724 9.64291957822661)  rotate(0 6.034659598036214 6.397533295325205)" d="M3.12,2.85C2.39,4.73 -0.79,6.34 0.19,8.48C1.16,10.63 1.65,13.04 3.12,12.77C4.59,12.51 10.22,12.24 10.96,10.63C11.69,9.02 12.91,9.02 11.2,5.26C9.49,1.51 8.75,-0.64 4.59,0.17C4.35,0.44 3.71,1.35 3.12,2.85Z " /><path id="Vector 470" fill-rule="evenodd" style="fill:#FD6C6C" transform="translate(20.413880690294945 41.28330334490363)  rotate(0 6.034659598036214 6.397533295325205)" opacity="1" d="M3.12,2.85C2.39,4.73 -0.79,6.34 0.19,8.48C1.16,10.63 1.65,13.04 3.12,12.77C4.59,12.51 10.22,12.24 10.96,10.63C11.69,9.02 12.91,9.02 11.2,5.26C9.49,1.51 8.75,-0.64 4.59,0.17C4.35,0.44 3.71,1.35 3.12,2.85Z " /><path  id="Vector 470" style="stroke:#FF4646; stroke-width:1.5; stroke-opacity:1; stroke-dasharray:0 0" transform="translate(20.413880690294945 41.28330334490363)  rotate(0 6.034659598036214 6.397533295325205)" d="M3.12,2.85C2.39,4.73 -0.79,6.34 0.19,8.48C1.16,10.63 1.65,13.04 3.12,12.77C4.59,12.51 10.22,12.24 10.96,10.63C11.69,9.02 12.91,9.02 11.2,5.26C9.49,1.51 8.75,-0.64 4.59,0.17C4.35,0.44 3.71,1.35 3.12,2.85Z " /><path  id="Vector 471" style="stroke:#665252; stroke-width:2; stroke-opacity:1; stroke-dasharray:0 0" transform="translate(23.82842858943684 49.601351867537005)  rotate(0 1.9631740717662107 23.46459563125164)" d="M3.93,0C2.21,3.84 -0.92,13.94 0.26,23.6C1.43,33.25 1.72,43.17 1.72,46.93 " /><path  id="Vector 472" style="stroke:#665252; stroke-width:2; stroke-opacity:1; stroke-dasharray:0 0" transform="translate(5.23556597979109 31.63470178897137)  rotate(0 2.32601752861016 32.849597057945196)" d="M0,0C0,7.69 0,24.19 0,28.69C0,33.2 3.1,55.24 4.65,65.7 " /><path  id="Vector 473" style="stroke:#665252; stroke-width:2; stroke-opacity:1; stroke-dasharray:0 0" transform="translate(10.254263898664249 8.571782545130645)  rotate(0 2.387128005552299 43.57770390504384)" d="M4.77,0C3.96,9.48 2.18,30.2 1.59,37.28C0.86,46.13 -1.59,81.79 1.59,87.16 " /><path  id="Vector 474" style="stroke:#665252; stroke-width:2; stroke-opacity:1; stroke-dasharray:0 0" transform="translate(29.221428179580585 17.68481558451481)  rotate(0 3.6742674261460975 39.28478751459017)" d="M0,0C2.53,6.79 7.54,21.72 7.34,27.08C7.15,32.45 3.51,63.64 1.71,78.57 " /><path  id="Vector 466" style="stroke:#665252; stroke-width:2; stroke-opacity:1; stroke-dasharray:0 0" transform="translate(14.509080855760658 31.902486047245475)  rotate(0 3.6857256405727497 32.715704928808236)" d="M7.37,0C4.35,10.64 -1.3,33.79 0.27,41.3C1.84,48.81 1.9,60.51 1.74,65.43 " /></g><path  id="Vector 1509" style="stroke:#FFFFFF; stroke-width:2; stroke-opacity:0.6; stroke-dasharray:0 0" transform="translate(152 622)  rotate(0 22.5 25.5)" d="M45,0C36.21,6.04 17.3,20.32 12.03,29.08C6.75,37.85 1.81,47.35 0,51 " /><path  id="Vector 1507" style="stroke:#FFFFFF; stroke-width:2; stroke-opacity:0.6; stroke-dasharray:0 0" transform="translate(50 417)  rotate(0 41.5 126.5)" d="M0,0C4.97,39.17 20.88,123.28 44.75,146.36C68.62,169.45 80.2,227.07 83,253 " /><g opacity="1" transform="translate(64 0)  rotate(0 43 49)"><g opacity="1" transform="translate(13.040835516151773 10.84396815632202)  rotate(28.07 29.600387268848507 38.912400030428)"><path id="Rectangle 2261" fill-rule="evenodd" style="fill:#FFFFFF" transform="translate(0 1.4210854715202004e-14)  rotate(0 26.35389318129738 38.912400030428)" opacity="1" d="M8,77.82L52.71,77.82L52.71,15C52.71,6.72 45.99,0 37.71,0L3,0C1.34,0 0,1.34 0,3L0,69.82C0,74.24 3.58,77.82 8,77.82Z " /><path id="Rectangle 2262" fill-rule="evenodd" style="fill:#F4F0ED" transform="translate(6.11104769421388 63.59876134005434)  rotate(0 26.54486342174157 7.113019360400819)" opacity="1" d="M3.06,11.3C2.51,13.3 0,14.23 0,14.23L44.09,14.23C49.06,14.23 53.09,10.2 53.09,5.23L53.09,0L4.2,0C4.2,0 4.2,7.11 3.06,11.3Z " /><path id="Ellipse 488" fill-rule="evenodd" style="fill:#FEDCD2" transform="translate(4.583285770660453 7.531432263953818)  rotate(0 2.6735833662185744 2.9288903248709253)" opacity="1" d="M2.67,0C1.2,0 0,1.31 0,2.93C0,4.55 1.2,5.86 2.67,5.86C4.15,5.86 5.35,4.55 5.35,2.93C5.35,1.31 4.15,0 2.67,0Z " /><path id="Ellipse 489" fill-rule="evenodd" style="fill:#FEDCD2" transform="translate(4.583285770660453 20.08381937054351)  rotate(0 2.6735833662185744 2.9288903248709253)" opacity="1" d="M2.67,0C1.2,0 0,1.31 0,2.93C0,4.55 1.2,5.86 2.67,5.86C4.15,5.86 5.35,4.55 5.35,2.93C5.35,1.31 4.15,0 2.67,0Z " /><path id="Ellipse 490" fill-rule="evenodd" style="fill:#FEDCD2" transform="translate(4.583285770660453 33.47303228423915)  rotate(0 2.6735833662185744 2.9288903248709253)" opacity="1" d="M2.67,0C1.2,0 0,1.31 0,2.93C0,4.55 1.2,5.86 2.67,5.86C4.15,5.86 5.35,4.55 5.35,2.93C5.35,1.31 4.15,0 2.67,0Z " /><path id="Ellipse 491" fill-rule="evenodd" style="fill:#FEDCD2" transform="translate(4.583285770660453 46.025419390828816)  rotate(0 2.6735833662185744 2.9288903248709253)" opacity="1" d="M2.67,0C1.2,0 0,1.31 0,2.93C0,4.55 1.2,5.86 2.67,5.86C4.15,5.86 5.35,4.55 5.35,2.93C5.35,1.31 4.15,0 2.67,0Z " /><path id="Rectangle 2263" fill-rule="evenodd" style="fill:#FEDCD2" transform="translate(11.458214426651068 9.205083878165752)  rotate(0 17.187321639976552 1.2552387106589677)" opacity="0.5" d="M1.26,2.51L33.12,2.51C33.81,2.51 34.37,1.95 34.37,1.26L34.37,1.26C34.37,0.57 33.81,0 33.12,0L1.26,0C0.93,0 0.6,0.13 0.37,0.37C0.13,0.6 0,0.93 0,1.26L0,1.26C0,1.95 0.57,2.51 1.26,2.51Z " /><path id="Rectangle 2264" fill-rule="evenodd" style="fill:#FEDCD2" transform="translate(11.458214426651068 21.757470984755443)  rotate(0 17.187321639976552 1.2552387106589677)" opacity="0.5" d="M1.26,2.51L33.12,2.51C33.81,2.51 34.37,1.95 34.37,1.26L34.37,1.26C34.37,0.57 33.81,0 33.12,0L1.26,0C0.93,0 0.6,0.13 0.37,0.37C0.13,0.6 0,0.93 0,1.26L0,1.26C0,1.95 0.57,2.51 1.26,2.51Z " /><path id="Rectangle 2265" fill-rule="evenodd" style="fill:#FEDCD2" transform="translate(11.458214426651068 35.146683898451116)  rotate(0 17.187321639976552 1.2552387106589677)" opacity="0.5" d="M1.26,2.51L33.12,2.51C33.81,2.51 34.37,1.95 34.37,1.26L34.37,1.26C34.37,0.57 33.81,0 33.12,0L1.26,0C0.93,0 0.6,0.13 0.37,0.37C0.13,0.6 0,0.93 0,1.26L0,1.26C0,1.95 0.57,2.51 1.26,2.51Z " /><path id="Rectangle 2266" fill-rule="evenodd" style="fill:#FEDCD2" transform="translate(11.458214426651068 47.69907100504075)  rotate(0 17.187321639976552 1.2552387106589677)" opacity="0.5" d="M1.26,2.51L33.12,2.51C33.81,2.51 34.37,1.95 34.37,1.26L34.37,1.26C34.37,0.57 33.81,0 33.12,0L1.26,0C0.93,0 0.6,0.13 0.37,0.37C0.13,0.6 0,0.93 0,1.26L0,1.26C0,1.95 0.57,2.51 1.26,2.51Z " /></g></g><g opacity="1" transform="translate(207 188)  rotate(0 184.01742614148498 162.25379438945558)"><g opacity="1" transform="translate(0 0)  rotate(0 139.87825012207034 162.25379438945558)"><g opacity="1" transform="translate(53.32691192626952 18.021282626971004)  rotate(0 68.16529846191406 153.2431530759701)"><path id="路径 1358" fill-rule="evenodd" style="fill:#55A684" transform="translate(0 0)  rotate(0 64.98499488830568 152.46530678940482)" opacity="1" d="M5.12 300.17L5.12 300.16C2.06 298.17 0 294.59 0 289.41L0 86.65C0 74.61 7.38 60.51 16.41 55.3L108.77 1.97C113.15 -0.56 117.91 -0.56 121.66 1.45L121.69 1.44L121.96 1.6L122.06 1.66L129.97 6.15L128.5 9.75L127.81 9.32C128.24 10.81 128.5 12.43 128.5 14.22L128.5 215.22C128.5 227.25 121.12 241.36 112.09 246.57L20.11 299.68L13.45 304.93L5.6 300.45C5.46 300.37 5.32 300.29 5.18 300.2L5.12 300.17Z" /><path id="路径 1359" fill-rule="evenodd" style="fill:#A6A6A6" transform="translate(7.82691955566407 4.441893933981827)  rotate(0 64.25183868408203 151.02220610897916)" opacity="1" d="M128.5 14.23L128.5 215.23C128.5 227.26 121.12 241.37 112.09 246.58L20.11 299.69C11.09 304.9 0 301.46 0 289.42L0 86.66C0 74.63 7.38 60.52 16.41 55.3L108.77 1.98C117.8 -3.23 128.5 2.19 128.5 14.23Z" /><path id="路径 1360" fill-rule="evenodd" style="fill:#D4FCE4" transform="translate(10.811275482177741 7.4442211306054205)  rotate(0 61.267478942871094 147.677536217814)" opacity="0.5" d="M122.53 211.1C122.53 223.05 115.2 236.16 106.23 241.34L16.3 293.26C7.34 298.44 0 293.8 0 281.84L0 85.01C0 73.05 7.34 59.04 16.3 53.86L106.23 1.94C115.2 -3.24 122.53 2.31 122.53 14.27L122.53 211.1Z" /><path id="路径 1361" fill-rule="evenodd" style="fill:#FFFFFF" transform="translate(17.24416732788086 21.357435287488766)  rotate(0 54.834655761718736 134.02912521362302)" opacity="1" d="M0 63.32L109.67 0L109.67 204.74L0 268.06L0 63.32Z" /><path id="路径 1362" fill-rule="evenodd" style="fill:#FFFFFF" transform="translate(62.10938453674317 45.62024494083005)  rotate(0 2.0207901000976562 2.936983947557689)" opacity="1" d="M0 4.1C0 2.62 0.91 0.89 2.02 0.24C3.14 -0.4 4.04 0.28 4.04 1.77C4.04 3.26 3.14 4.99 2.02 5.63C0.91 6.28 0 5.59 0 4.1Z" /><path id="路径 1363" fill-rule="evenodd" style="fill:#FFFFFF" transform="translate(71.00861358642578 32.81052582576383)  rotate(0 8.666679382324212 6.772136153333356)" opacity="1" d="M15.31 0.24C16.42 -0.4 17.33 0.29 17.33 1.77C17.33 3.25 16.42 4.99 15.31 5.63L2.02 13.3C0.91 13.95 0 13.26 0 11.78C0 10.29 0.91 8.56 2.02 7.91L15.31 0.24Z" /><path id="路径 1364" fill-rule="evenodd" style="fill:#FFFFFF" transform="translate(69.18484306335449 255.27988411770005)  rotate(0 9.131774902343736 7.166351874409884)" opacity="1" d="M2.16 14.08C0.97 14.76 0 14.03 0 12.44C0 10.85 0.97 8.99 2.16 8.3L16.1 0.26C17.29 -0.43 18.26 0.31 18.26 1.89C18.26 3.48 17.29 5.34 16.1 6.03L2.16 14.08Z" /></g><g opacity="1" transform="translate(153.35220336914068 0)  rotate(0 63.20214843749999 62.00619197648645)"><path id="路径 1365" fill-rule="evenodd" style="fill:#D4FAF7" transform="translate(0 0)  rotate(0 61.1619720458984 62.00619197648645)" opacity="1" d="M16.48 55.38L110.57 1.06C112.94 -0.32 115.58 -0.27 117.76 0.74L117.78 0.75C118.13 0.91 118.47 1.1 118.79 1.31L122.32 3.29L121.78 4.97C122.12 5.85 122.32 6.81 122.32 7.85L122.32 19.25C122.32 31.02 116.04 41.9 105.85 47.79L33.92 89.31L22.9 110.37L24.65 109.85L21.05 124.01L16.97 121.69L16.97 99.1L11.76 102.11L8.04 104.45L4.67 102.48C4.12 102.23 3.6 101.94 3.12 101.57L3.11 101.57C1.26 100.17 0 97.96 0 95.32L0 83.92C0 72.14 6.28 61.26 16.48 55.38Z" /><path id="路径 1366" fill-rule="evenodd" style="fill:#E5E5E5" transform="translate(4.0803451538085795 2.311728425914218)  rotate(0 61.1619758605957 60.85032537934356)" opacity="1" d="M110.56 1.06C115.79 -1.96 122.32 1.82 122.32 7.85L122.32 19.25C122.32 31.03 116.04 41.9 105.85 47.79L33.92 89.32L16.97 121.7L16.97 99.1L11.76 102.11C6.53 105.13 0 101.36 0 95.32L0 83.92C0 72.15 6.28 61.27 16.48 55.38L110.56 1.06Z" /><g opacity="1" transform="translate(22.154397964477482 27.196944692493755)  rotate(0 46.818365097045906 28.230654939539335)"><path id="路径 1367" fill-rule="evenodd" style="fill:#FFFFFF" transform="translate(0 52.5758617578621)  rotate(0 1.2876205444336009 1.9427240606082847)" opacity="1" d="M1.29 3.73C0.55 4.15 0 3.7 0 2.69C0 1.67 0.55 0.59 1.29 0.16C2.03 -0.27 2.58 0.18 2.58 1.21C2.58 2.21 2.03 3.3 1.29 3.73Z" /><path id="路径 1368" fill-rule="evenodd" style="fill:#FFFFFF" transform="translate(4.336570739746122 50.071699495981406)  rotate(0 1.2876129150390483 1.9418399201592962)" opacity="1" d="M1.29 3.72C0.55 4.15 0 3.7 0 2.69C0 1.67 0.55 0.59 1.29 0.16C2.03 -0.27 2.58 0.18 2.58 1.21C2.58 2.21 2.03 3.3 1.29 3.72Z" /><path id="路径 1369" fill-rule="evenodd" style="fill:#FFFFFF" transform="translate(8.67313385009767 47.56964306459851)  rotate(0 1.2876205444336009 1.9416658651893997)" opacity="1" d="M1.29 3.72C0.55 4.15 0 3.69 0 2.69C0 1.67 0.55 0.59 1.29 0.16C2.03 -0.27 2.58 0.18 2.58 1.21C2.58 2.21 2.03 3.3 1.29 3.72Z" /><path id="路径 1370" fill-rule="evenodd" style="fill:#FFFFFF" transform="translate(13.00970458984375 45.06367213293093)  rotate(0 1.2876205444336009 1.942571034697682)" opacity="1" d="M1.29 3.72C0.55 4.15 0 3.7 0 2.69C0 1.67 0.55 0.59 1.29 0.16C2.03 -0.27 2.58 0.19 2.58 1.21C2.58 2.21 2.03 3.3 1.29 3.72Z" /><path id="路径 1371" fill-rule="evenodd" style="fill:#FFFFFF" transform="translate(17.346275329589872 42.56127489573953)  rotate(0 1.2876129150390483 1.9427246547650476)" opacity="1" d="M1.29 3.73C0.55 4.15 0 3.7 0 2.69C0 1.67 0.55 0.59 1.29 0.16C2.03 -0.27 2.58 0.18 2.58 1.21C2.58 2.21 2.03 3.3 1.29 3.73Z" /><path id="路径 1372" fill-rule="evenodd" style="fill:#FFFFFF" transform="translate(21.682838439941378 40.057150979551636)  rotate(0 1.2876281738281534 1.942269012698926)" opacity="1" d="M1.29 3.72C0.55 4.15 0 3.7 0 2.69C0 1.67 0.55 0.59 1.29 0.16C2.03 -0.27 2.58 0.18 2.58 1.21C2.58 2.21 2.03 3.3 1.29 3.72Z" /><path id="路径 1373" fill-rule="evenodd" style="fill:#FFFFFF" transform="translate(26.019409179687543 37.555056111710684)  rotate(0 1.2876281738280966 1.942571727201294)" opacity="1" d="M1.29 3.73C0.55 4.15 0 3.69 0 2.69C0 1.67 0.55 0.59 1.29 0.16C2.03 -0.27 2.58 0.18 2.58 1.21C2.58 2.21 2.03 3.3 1.29 3.73Z" /><path id="路径 1374" fill-rule="evenodd" style="fill:#FFFFFF" transform="translate(30.358131408691477 35.04997796662738)  rotate(0 1.2843933105468466 1.9422809480470278)" opacity="1" d="M1.29 3.72C0.54 4.15 0 3.7 0 2.69C0 1.67 0.54 0.59 1.29 0.16C2.02 -0.27 2.57 0.19 2.57 1.21C2.57 2.21 2.02 3.3 1.29 3.72Z" /><path id="路径 1375" fill-rule="evenodd" style="fill:#FFFFFF" transform="translate(34.69254302978517 32.54760426874766)  rotate(0 1.2854766845702983 1.9422886680999518)" opacity="1" d="M1.29 3.73C0.55 4.15 0 3.7 0 2.69C0 1.67 0.55 0.58 1.29 0.16C2.03 -0.27 2.57 0.18 2.57 1.2C2.57 2.21 2.03 3.3 1.29 3.73Z" /><path id="路径 1376" fill-rule="evenodd" style="fill:#FFFFFF" transform="translate(39.02696228027348 30.04286652586119)  rotate(0 1.2865447998047017 1.9421157201397747)" opacity="1" d="M1.29 3.72C0.55 4.15 0 3.7 0 2.69C0 1.67 0.55 0.59 1.29 0.16C2.02 -0.27 2.57 0.19 2.57 1.21C2.57 2.21 2.02 3.3 1.29 3.72Z" /><path id="路径 1377" fill-rule="evenodd" style="fill:#FFFFFF" transform="translate(43.36351013183592 27.540464751803913)  rotate(0 1.2876281738281534 1.9425737339100273)" opacity="1" d="M1.29 3.73C0.55 4.15 0 3.69 0 2.69C0 1.67 0.55 0.59 1.29 0.16C2.02 -0.27 2.58 0.18 2.58 1.21C2.58 2.21 2.02 3.3 1.29 3.73Z" /><path id="路径 1378" fill-rule="evenodd" style="fill:#FFFFFF" transform="translate(47.70009613037111 25.035388656934995)  rotate(0 1.2865447998047017 1.9422787528133227)" opacity="1" d="M1.29 3.72C0.55 4.15 0 3.7 0 2.69C0 1.67 0.55 0.59 1.29 0.16C2.02 -0.27 2.57 0.19 2.57 1.21C2.57 2.21 2.02 3.3 1.29 3.72Z" /><path id="路径 1379" fill-rule="evenodd" style="fill:#FFFFFF" transform="translate(52.03668212890629 22.533049999483037)  rotate(0 1.2876129150390483 1.9422704129296697)" opacity="1" d="M1.29 3.73C0.55 4.15 0 3.7 0 2.69C0 1.67 0.55 0.59 1.29 0.16C2.02 -0.27 2.58 0.18 2.58 1.21C2.58 2.21 2.02 3.3 1.29 3.73Z" /><path id="路径 1380" fill-rule="evenodd" style="fill:#FFFFFF" transform="translate(56.373229980468736 20.02828528504728)  rotate(0 1.2876281738281534 1.9425699350546566)" opacity="1" d="M1.29 3.72C0.55 4.15 0 3.7 0 2.69C0 1.67 0.55 0.59 1.29 0.16C2.02 -0.27 2.58 0.19 2.58 1.21C2.58 2.21 2.02 3.3 1.29 3.72Z" /><path id="路径 1381" fill-rule="evenodd" style="fill:#FFFFFF" transform="translate(60.70981597900392 17.525883449003633)  rotate(0 1.2876281738280966 1.942725613935277)" opacity="1" d="M1.29 3.73C0.55 4.15 0 3.7 0 2.69C0 1.67 0.55 0.59 1.29 0.16C2.02 -0.27 2.58 0.18 2.58 1.21C2.58 2.21 2.02 3.3 1.29 3.73Z" /><path id="路径 1382" fill-rule="evenodd" style="fill:#FFFFFF" transform="translate(65.04637145996095 15.021718730519549)  rotate(0 1.2876281738281392 1.941838790591646)" opacity="1" d="M1.29 3.72C0.55 4.15 0 3.7 0 2.69C0 1.67 0.55 0.59 1.29 0.16C2.03 -0.27 2.58 0.18 2.58 1.21C2.58 2.21 2.03 3.3 1.29 3.72Z" /><path id="路径 1383" fill-rule="evenodd" style="fill:#FFFFFF" transform="translate(69.38294982910163 12.519664835230191)  rotate(0 1.2876129150390483 1.9416641828307064)" opacity="1" d="M1.29 3.72C0.55 4.15 0 3.69 0 2.69C0 1.67 0.55 0.59 1.29 0.16C2.02 -0.27 2.58 0.18 2.58 1.21C2.58 2.21 2.02 3.3 1.29 3.72Z" /><path id="路径 1384" fill-rule="evenodd" style="fill:#FFFFFF" transform="translate(73.71950531005864 10.013693257105455)  rotate(0 1.2876129150390483 1.9425677682189466)" opacity="1" d="M1.29 3.72C0.55 4.15 0 3.7 0 2.69C0 1.67 0.55 0.59 1.29 0.16C2.03 -0.27 2.58 0.19 2.58 1.21C2.58 2.21 2.03 3.3 1.29 3.72Z" /><path id="路径 1385" fill-rule="evenodd" style="fill:#FFFFFF" transform="translate(78.05609130859374 7.511297170593064)  rotate(0 1.287612915039091 1.942722481876853)" opacity="1" d="M1.29 3.73C0.55 4.15 0 3.7 0 2.69C0 1.67 0.55 0.59 1.29 0.16C2.03 -0.27 2.58 0.18 2.58 1.21C2.58 2.21 2.03 3.3 1.29 3.73Z" /><path id="路径 1386" fill-rule="evenodd" style="fill:#FFFFFF" transform="translate(82.39263916015626 5.007168265062777)  rotate(0 1.2876281738281108 1.9422673644569386)" opacity="1" d="M1.29 3.72C0.55 4.15 0 3.7 0 2.69C0 1.67 0.55 0.59 1.29 0.16C2.03 -0.27 2.58 0.18 2.58 1.21C2.58 2.21 2.03 3.3 1.29 3.72Z" /><path id="路径 1387" fill-rule="evenodd" style="fill:#FFFFFF" transform="translate(86.72922515869145 2.5050818237498085)  rotate(0 1.2854766845702983 1.9425727639533825)" opacity="1" d="M1.29 3.73C0.55 4.15 0 3.69 0 2.69C0 1.67 0.55 0.59 1.29 0.16C2.03 -0.27 2.57 0.18 2.57 1.21C2.57 2.21 2.03 3.3 1.29 3.73Z" /><path id="路径 1388" fill-rule="evenodd" style="fill:#FFFFFF" transform="translate(91.06577682495121 0)  rotate(0 1.2854766845702983 1.942278208315992)" opacity="1" d="M1.28 3.72C0.55 4.15 0 3.7 0 2.69C0 1.67 0.55 0.59 1.28 0.16C2.03 -0.27 2.57 0.19 2.57 1.21C2.57 2.21 2.03 3.3 1.28 3.72Z" /></g></g><g opacity="1" transform="translate(198.12991333007818 62.24668456637627)  rotate(0 33.9739189147949 42.2797107696533)"><path id="路径 1389" fill-rule="evenodd" style="fill:#FFCAE5" transform="translate(3.972251892089787 2.318359374999993)  rotate(0 31.987792968750007 41.12052345275879)" opacity="1" d="M0 36.94L63.98 0L63.98 45.3L0 82.24L0 36.94Z" /><path id="路径 1390" fill-rule="evenodd" style="fill:#FFA1D0" transform="translate(0 36.936405181884766)  rotate(0 1.9861145019530966 23.811508178710916)" opacity="1" d="M3.97 47.62L0 45.3L0 0L3.97 2.32L3.97 47.62Z" /><path id="路径 1391" fill-rule="evenodd" style="fill:#FFBBDD" transform="translate(0 0)  rotate(0 33.973907470703104 19.62727165222168)" opacity="1" d="M3.97 39.25L0 36.94L63.98 0L67.95 2.32L3.97 39.25Z" /><g opacity="1" transform="translate(8.01042652130127 12.299387682270492)  rotate(0 27.026046752929652 32.3201109226587)"><path id="路径 1392" fill-rule="evenodd" style="fill:#2143AF" transform="translate(0 0)  rotate(0 27.026046752929652 16.65368402160663)" opacity="1" d="M52.85 0.14C53.51 -0.24 54.05 0.17 54.05 1.05C54.05 1.93 53.51 2.96 52.85 3.34L1.2 33.16C0.54 33.55 0 33.14 0 32.26C0 31.38 0.54 30.34 1.2 29.96L52.85 0.14Z" /><path id="路径 1393" fill-rule="evenodd" style="fill:#2143AF" transform="translate(0 16.305924223471486)  rotate(0 18.721099853515604 11.858656987784688)" opacity="1" d="M36.24 0.14C36.9 -0.24 37.44 0.17 37.44 1.05C37.44 1.93 36.9 2.96 36.24 3.34L1.2 23.57C0.54 23.96 0 23.55 0 22.67C0 21.79 0.54 20.75 1.2 20.37L36.24 0.14Z" /><path id="路径 1394" fill-rule="evenodd" style="fill:#FF559A" transform="translate(3.2388229370116903 46.52591825645021)  rotate(0 2.1194152832031037 9.057151794433594)" opacity="1" d="M0 2.45L4.24 0L4.24 15.67L0 18.11L0 2.45Z" /><path id="路径 1395" fill-rule="evenodd" style="fill:#2143AF" transform="translate(11.812911987304645 37.835564862895524)  rotate(0 2.1195220947265483 10.927215576171875)" opacity="1" d="M0 2.45L4.24 0L4.24 19.41L0 21.85L0 2.45Z" /><path id="路径 1396" fill-rule="evenodd" style="fill:#FF559A" transform="translate(20.38722229003902 40.59597707908205)  rotate(0 2.1194000244140625 7.071891784667969)" opacity="1" d="M0 2.45L4.24 0L4.24 11.7L0 14.14L0 2.45Z" /><path id="路径 1397" fill-rule="evenodd" style="fill:#FF559A" transform="translate(29.03279113769524 26.26248098533204)  rotate(0 2.119400024414091 11.742858886718754)" opacity="1" d="M0 2.45L4.24 0L4.24 21.04L0 23.49L0 2.45Z" /><path id="路径 1398" fill-rule="evenodd" style="fill:#FF559A" transform="translate(37.607101440429616 26.68343282859376)  rotate(0 2.1194000244140483 9.057273864746097)" opacity="1" d="M0 2.45L4.24 0L4.24 15.67L0 18.11L0 2.45Z" /><path id="路径 1399" fill-rule="evenodd" style="fill:#FF559A" transform="translate(46.18117523193358 25.731707822490257)  rotate(0 2.1194000244140483 7.057907104492184)" opacity="1" d="M0 2.45L4.24 0L4.24 11.67L0 14.12L0 2.45Z" /></g></g><g opacity="1" transform="translate(87.92572441679772 105.55530883338395)  rotate(0 77.74596367431221 95.09969139127647)"><g opacity="1" transform="translate(0 0)  rotate(0 77.74596367431221 95.09969139127647)"><path id="路径 1400" fill-rule="evenodd" style="fill:#4CC3D6" transform="translate(117.02537530226523 78.89693583765022)  rotate(0 5.46808567001041 8.126476892172391)" opacity="1" d="M10 15.02C7.76 16.59 1.67 17.61 0.32 11.96C-1.03 6.31 2.21 0.76 3.89 0.1C5.27436 -0.443857 5.98026 1.26718 6.90268 3.50304C7.28624 4.43275 7.70723 5.45319 8.23 6.44C8.37191 6.70787 8.51662 6.97753 8.66164 7.24778C10.3357 10.3673 12.0522 13.566 10 15.02Z" /><path id="路径 1401" fill-rule="evenodd" style="fill:#FFC3C2" transform="translate(116.72028121369547 68.12626292729506)  rotate(0 19.385823067464464 13.208351004289078)" opacity="1" d="M17.88 1.24C22.15 -1.09 22.84 0.12 21.42 2.74C20.841 3.81921 19.6997 4.51613 18.9053 5.00124C18.2863 5.37918 17.8779 5.62856 18.11 5.83C20.02 7.46 21.95 8.1 27.21 7.28C29.0653 6.98997 30.5368 6.23243 31.8991 5.53108C33.7309 4.58806 35.3653 3.74666 37.47 4.28C41.15 5.21 36.35 14.28 31.31 16.2C26.27 18.11 19.06 17.11 16.24 18.59C11.09 21.28 4.37 25.76 4.09 26.4L4.09 26.42C3.54 26 3.02 25.53 2.56 24.92C0.93 22.78 0.52 20.36 0 17.91C0.52 16.58 1.08 15.58 1.7 15.13C3.3 13.96 5.25 12.98 6.41 12.07C8.3 10.58 9 9.31 9.35 8.05C10.12 5.29 13.61 3.58 17.88 1.24Z" /><path id="路径 1402" fill-rule="evenodd" style="fill:#6DD1E8" transform="translate(57.04996282538278 39.82662103546821)  rotate(0 34.98564423291369 36.84432222685119)" opacity="1" d="M25.72 72.81C21.87 70.58 14.43 57.22 10.58 41.56C10.2442 36.2858 7.6369 30.4239 5.09483 24.7086C0.898754 15.2747 -3.11949 6.24061 3.55 0.91C12.2 -2.6 17.94 3.74 26.56 24.98C29.96 33.39 33.08 45 34.98 50.66C38.15 48.84 63.86 39.17 63.86 39.17C63.86 39.17 63.08 42.3 64.46 45.98C66.15 50.47 69.97 54.09 69.97 54.09C69.97 54.09 52.3 66.83 41.67 70.58C33.92 73.32 30.44 74.47 26.21 73.13C26.02 73.07 25.87 72.94 25.72 72.81Z" /><path id="路径 1403" fill-rule="evenodd" style="fill:#A4EBF7" transform="translate(2.8799930514640693 37.545291901205246)  rotate(0 41.83905792236328 76.32704544067384)" opacity="1" d="M7.81 41.72C6.42 27.28 30.68 13.27 30.68 13.27L54.17 0C54.17 0 65.07 8.29 71.82 17.5C80.9872 30.0111 80.873 52.1967 80.7829 69.7027C80.7469 76.6974 80.7147 82.9451 81.28 87.53C81.52 89.56 83.68 104.34 83.68 104.34C83.68 104.34 61.94 117.15 54.96 121.18C41.02 129.22 0 152.65 0 152.65C0 152.65 10.42 99.56 12.31 90.2C13.9036 82.2957 12.2037 74.041 10.4335 65.4448C8.86014 57.8042 7.23119 49.8939 7.81 41.72Z" /><path id="路径 1404" fill-rule="evenodd" style="fill:#6DD1E8" transform="translate(52.78066214936446 45.83084869441814)  rotate(0 11.51764509412979 41.570987701416)" opacity="1" d="M22.21 57.62C20.36 67.49 14.12 83.14 14.12 83.14C14.12 83.14 8.4 26.69 6.96 19.06C5.52 11.44 0 8.49 0 8.49L1.6 0C1.6 0 10.88 0 14.12 6.03C16.1 9.71 21.07 21.24 21.07 21.24L15.17 26.38L22.21 29.37C22.21 29.37 24.07 47.75 22.21 57.62Z" /><path id="路径 1405" fill-rule="evenodd" style="fill:#566CD3" transform="translate(37.6155963839836 51.704803467367356)  rotate(0 15.165061950683587 39.20459747314453)" opacity="1" d="M11.9 26.79C6.46 17.73 0 9.32 0 9.32L16.08 0C16.08 0 25.01 13.25 27.48 24.87C29.96 36.49 30.33 74.19 30.33 74.19L26.38 78.41C26.38 78.41 17.34 35.86 11.9 26.79Z" /><g opacity="1" transform="translate(56.6844440402336 38.327957161405266)  rotate(0 9.670074462890646 20.494823452053296)"><path id="路径 1406" fill-rule="evenodd" style="fill:#33211F" transform="translate(0 0)  rotate(0 9.670074462890646 20.494823452053296)" opacity="1" d="M0.74 1.59L0.73 1.59L0 0.11C0.88 -0.32 3.35 0.59 4.8 1.3C7.64 2.71 12.63 6.13 14.01 13.22C15.54 21.02 19.34 40.68 19.34 40.68L17.72 40.99C17.72 40.99 13.91 21.34 12.39 13.53C10.51 3.89 1.44 1.59 0.74 1.59Z" /></g><g opacity="1" transform="translate(26.36832160026708 0)  rotate(0 21.01870746104563 34.113713276633135)"><path id="路径 1407" fill-rule="evenodd" style="fill:#FFB4AF" transform="translate(6.432691959009489 34.08507537898845)  rotate(0 12.12474060058593 17.07117558713891)" opacity="1" d="M0 20.96L3.77 0L21.61 12.96L24.25 27C24.25 27 24.25 30.74 22.26 32.62C19.66 35.08 13.57 34.67 8.76 30.55C1.09 23.98 0 20.96 0 20.96Z" /><path id="路径 1408" fill-rule="evenodd" style="fill:#FFC3C2" transform="translate(4.723043498414967 4.370549619671564)  rotate(0 18.426870890436867 23.179862228146398)" opacity="1" d="M24.39 46.3C19.5 45.51 8.48 41.06 3.66 33.17C-1.77 24.31 -0.55 11.71 3.39 6.68C8.47 0.21 23.07 -5.25 32.57 8.83C42.54 23.58 33.12 47.71 24.39 46.3Z" /><path id="路径 1409" fill-rule="evenodd" style="fill:#33211F" transform="translate(0 0)  rotate(0 21.01870746104563 18.77264595060263)" opacity="1" d="M41.58 18.18C39.66 21.52 34.98 25.31 26.79 26.06C20.08 26.68 14.7 24.87 14.7 24.87L15.72 31.62C15.72 31.62 14.37 31.72 13.25 31.37C12.22 28 9.19 28.33 8.23 30.22C7.11 32.44 8.38 37.55 8.38 37.55C8.38 37.55 0.38 33.03 0.01 22.76C-0.22 16.36 4.84 2.27 16.51 0.37C28.18 -1.54 37.42 4.34 40.53 10.49C42.08 13.57 42.44 16.67 41.58 18.18Z" /></g><path id="路径 1410" fill-rule="evenodd" style="fill:#6DD1E8" transform="translate(26.36721763032149 48.22521972713298)  rotate(0 18.8158416748047 40.94438934326175)" opacity="1" d="M7.66 0C7.66 0 20.48 16.06 25.54 27.18C35.02 48 37.63 81.89 37.63 81.89C37.63 81.89 28.13 62.39 24.55 55.88C21.94 51.12 12.52 35.96 12.52 35.96L20.79 29.86L9.88 28.34L0 7.48C0 7.48 2.25 2.5 7.66 0Z" /><g opacity="1" transform="translate(65.19177588837817 127.59260177669356)  rotate(0 1.14013671875 13.289627075195298)"><path id="路径 1411" fill-rule="evenodd" style="fill:#6DD1E8" transform="translate(0 0)  rotate(0 1.14013671875 13.289627075195298)" opacity="1" d="M0.65 26.58C0.39 14.59 0 0.12 0 0L1.65 0.01C1.65 0.13 2.02 13.76 2.28 25.52C2.28 25.52 1.14 26.18 0.65 26.58Z" /></g><g opacity="1" transform="translate(71.50498542206958 76.6863746648771)  rotate(0 4.153545379638679 5.358261108398452)"><path id="路径 1412" fill-rule="evenodd" style="fill:#B79E9E" transform="translate(0 0)  rotate(0 3.708908081054645 5.358261108398452)" opacity="1" d="M3.71 0C5.76 0 7.42 2.4 7.42 5.36C7.42 8.32 5.76 10.72 3.71 10.72C1.66 10.72 0 8.32 0 5.36C0 2.4 1.66 0 3.71 0Z" /><path id="路径 1413" fill-rule="evenodd" style="fill:#5B4242" transform="translate(1.4771118164062074 0.9563490722431283)  rotate(0 3.268200444507251 4.438684136974153)" opacity="1" d="M0 4.48C0 2.33 1.08 0.54 2.5 0.17L2.51 0.16C3.88 -0.39 5.1 0.63 5.37 1.06C6.18 2.38 7.21 4.51 5.94 6.83C5.19 8.2 4.32 8.63 3.72 8.76C3.5 8.83 3.28 8.88 3.04 8.88C1.36 8.88 0 6.91 0 4.48Z" /><path id="路径 1414" fill-rule="evenodd" style="fill:#FFFFFF" transform="translate(2.9778976440429545 1.591217041015625)  rotate(0 2.6645965576172017 3.8488616943359446)" opacity="1" d="M2.66 0C4.14 0 5.33 1.72 5.33 3.85C5.33 5.98 4.14 7.7 2.66 7.7C1.19 7.7 0 5.98 0 3.85C0 1.72 1.19 0 2.66 0Z" /></g><g opacity="1" transform="translate(28.056214307560438 46.49618911800212)  rotate(0 6.8489316082799405 21.725910186767592)"><path id="路径 1415" fill-rule="evenodd" style="fill:#33211F" transform="translate(0 0)  rotate(0 6.8489316082799405 21.725910186767592)" opacity="1" d="M12.37 43.32C12.81 43.23 12.86 43.25 12.52 43.39L12.4 43.45C12.45 43.43 12.49 43.41 12.52 43.39C12.91 43.24 13.31 43.17 13.7 43.14C12.09 37.81 9.55 31.11 5.48 22.88C0.8 13.41 1.27 8.37 2.48 5.81C3.75 3.12 6.08 2.02 6.18 1.99L6.28 0C6.16 0.03 2.64 1.65 1.01 5.05C-1.01 9.26 0 15.5 4.01 23.61C7.97 31.64 10.46 38.22 12.05 43.45C12.16 43.42 12.25 43.34 12.37 43.32Z" /></g><path id="路径 1416" fill-rule="evenodd" style="fill:#6DD1E8" transform="translate(31.633494943553913 97.73082065639328)  rotate(0 7.876556396484382 4.912879943847649)" opacity="1" d="M0 6.31L14.18 0L15.75 3.52L1.58 9.83L0 6.31Z" /><g opacity="1" transform="translate(33.575975953017135 88.04094455938544)  rotate(0 11.624287213992325 18.603570306864498)"><g opacity="1" transform="translate(0 0)  rotate(0 11.520868857140208 17.962825068614954)"><path id="路径 1417" fill-rule="evenodd" style="fill:#FFFFFF" transform="translate(0 0)  rotate(0 11.520868857140208 17.962825068614954)" opacity="1" d="M2.41 7.46C1.88 9.84 2.14 12.99 3.17 16.57C6.21 27.13 11.85 34.54 11.91 34.62L10.21 35.93C9.97 35.61 4.27 28.13 1.11 17.16C-0.01 13.24 -0.29 9.73 0.31 6.99C1.06 3.62 3.14 1.35 6.34 0.43C12.71 -1.4 17.4 2.55 20.67 12.5C24.65 24.66 22.44 32.45 22.34 32.78L20.28 32.17C20.3 32.1 22.41 24.7 18.63 13.17C14.9 1.8 10.42 1.49 6.93 2.5C4.47 3.2 2.99 4.82 2.41 7.46Z" /></g><path id="路径 1418" fill-rule="evenodd" style="fill:#8C8C8C" transform="translate(19.374649933477713 30.54013293123036)  rotate(0 1.9369622472534687 1.936074172542945)" opacity="1" d="M1.84 0C2.91 -0.05 3.82 0.77 3.87 1.84C3.92 2.91 3.1 3.82 2.03 3.87C0.96 3.92 0.06 3.1 0 2.03C-0.05 0.96 0.77 0.05 1.84 0Z" /><path id="路径 1419" fill-rule="evenodd" style="fill:#8C8C8C" transform="translate(9.123201675271105 33.335175574789176)  rotate(0 1.9359957603362474 1.9359825194699098)" opacity="1" d="M1.84 0C2.91 -0.05 3.82 0.77 3.87 1.84C3.92 2.91 3.1 3.82 2.03 3.87C0.96 3.92 0.06 3.1 0 2.03C-0.05 0.96 0.77 0.06 1.84 0Z" /></g><path id="路径 1420" fill-rule="evenodd" style="fill:#FFC3C2" transform="translate(55.917892068798054 108.45139351784702)  rotate(0 20.91927483032491 12.233049674619785)" opacity="1" d="M30.65 8C35.95 7.7 46.57 9.03 39.47 16.8C33.6671 23.1415 27.2248 23.115 20.3224 23.0867C18.7676 23.0803 17.1895 23.0738 15.59 23.14C6.88 23.49 2.79 24.47 2.79 24.47L0 12.37C0 12.37 11.18 7.9 17.46 4.03C23.75 0.17 29.56 -1.59 27.73 1.8C25.9 5.19 21.77 5.43 20.43 8C19.5363 9.70132 21.982 9.28159 25.2749 8.71644C26.9563 8.42788 28.8586 8.1014 30.65 8Z" /><path id="路径 1421" fill-rule="evenodd" style="fill:#6DD1E8" transform="translate(0 64.82432937679118)  rotate(0 32.62033583111967 37.99214583630366)" opacity="1" d="M24.3457 75.9718C16.1257 76.0425 4.50496 76.1423 1.05 67.27C-0.64 62.9 0.16 45.92 0.4 40.92C0.521734 38.2894 0.562804 35.7312 0.602586 33.2534C0.830777 19.0403 1.01657 7.46805 16.14 0C25.13 1.01 31.09 37.82 28.3 51.97C30.82 52.09 63.09 50.2 63.09 50.2C63.09 50.2 68.24 68.82 62.61 72.15C52.78 73.31 34.56 75.96 26.37 75.96C25.7248 75.96 25.0477 75.9658 24.3457 75.9718Z" /></g></g><g opacity="1" transform="translate(0 59.52760650241143)  rotate(0 39.41800117492675 110.852180480957)"><path id="路径 1422" fill-rule="evenodd" style="fill:#A6A6A6" transform="translate(3.5616283416747976 2.0664405822753835)  rotate(0 37.63718605041506 109.81896018981931)" opacity="1" d="M0 43.38L75.27 0L75.27 176.26L0 219.64L0 43.38Z" /><g opacity="1" transform="translate(13.593700408935536 36.31430435180663)  rotate(0 10.589491367340091 85.3543701171875)"><g opacity="1" transform="translate(0 0)  rotate(0 10.589491367340091 85.3543701171875)"><g opacity="1" transform="translate(0.0043040574528347975 11.371114730834961)  rotate(0 5.487461090087891 10.916786193847656)"><path id="路径 1423" fill-rule="evenodd" style="fill:#3EB0AE" transform="translate(0 0)  rotate(0 5.487461090087891 10.916786193847656)" opacity="1" d="M10.97 19.71L10.2 21.83C9.78 21.73 0.03 19.07 0 0.85L1.47 0C1.51 17.14 10.88 19.69 10.97 19.71Z" /></g><g opacity="1" transform="translate(10.199762344360352 0)  rotate(0 5.487461090087898 16.37732696533203)"><path id="路径 1424" fill-rule="evenodd" style="fill:#3EB0AE" transform="translate(0 0)  rotate(0 5.487461090087898 16.37732696533203)" opacity="1" d="M10.97 0C10.94 18.26 1.2 32.17 0.78 32.75L0 31.53C0.09 31.4 9.46 17.99 9.5 0.85L10.97 0Z" /></g><g opacity="1" transform="translate(0 31.55747413635254)  rotate(0 5.498226165771488 27.206901550292983)"><path id="路径 1425" fill-rule="evenodd" style="fill:#3EB0AE" transform="translate(0 0)  rotate(0 5.498226165771488 27.206901550292983)" opacity="1" d="M1.48 32.48C1.48 49.71 10.88 52.27 10.98 52.29L10.2 54.41C9.78 54.31 0 51.65 0 33.34C0 15.04 9.77 0.61 10.18 0L11 1.17C10.9 1.31 1.48 15.28 1.48 32.48Z" /></g><g opacity="1" transform="translate(10.182538032531738 31.08806800842285)  rotate(0 5.498222351074222 27.21659088134767)"><path id="路径 1426" fill-rule="evenodd" style="fill:#3EB0AE" transform="translate(0 0)  rotate(0 5.498222351074222 27.21659088134767)" opacity="1" d="M0.81 0C1.23 0.12 11 3.28 11 21.58C11 39.89 1.21 53.85 0.8 54.43L0.02 53.21C0.11 53.08 9.52 39.61 9.52 22.43C9.52 5.18 0.09 2.14 0 2.11L0.81 0Z" /></g><g opacity="1" transform="translate(0 84.3219223022461)  rotate(0 5.498226165771488 27.20691299438475)"><path id="路径 1427" fill-rule="evenodd" style="fill:#3EB0AE" transform="translate(0 0)  rotate(0 5.498226165771488 27.20691299438475)" opacity="1" d="M1.48 32.48C1.48 49.71 10.88 52.27 10.98 52.29L10.2 54.41C9.78 54.31 0 51.65 0 33.34C0 15.04 9.77 0.61 10.18 0L11 1.17C10.9 1.31 1.48 15.28 1.48 32.48Z" /></g><g opacity="1" transform="translate(10.182538032531738 83.85253143310547)  rotate(0 5.498222351074222 27.216590881347656)"><path id="路径 1428" fill-rule="evenodd" style="fill:#3EB0AE" transform="translate(0 0)  rotate(0 5.498222351074222 27.216590881347656)" opacity="1" d="M0.81 0C1.23 0.12 11 3.28 11 21.58C11 39.89 1.21 53.85 0.8 54.43L0.02 53.21C0.11 53.08 9.52 39.61 9.52 22.43C9.52 5.23 0.09 2.14 0 2.11L0.81 0Z" /></g><g opacity="1" transform="translate(0 137.08853149414062)  rotate(0 5.498226165771488 16.810104370117195)"><path id="路径 1429" fill-rule="evenodd" style="fill:#3EB0AE" transform="translate(0 0)  rotate(0 5.498226165771488 16.810104370117195)" opacity="1" d="M10.18 0L11 1.17C10.9 1.31 1.48 15.28 1.48 32.48C1.48 32.58 1.49 32.67 1.49 32.77L0.01 33.62C0.01 33.52 0 33.44 0 33.34C0 15.04 9.77 0.61 10.18 0Z" /></g><g opacity="1" transform="translate(10.182538032531738 136.61912536621094)  rotate(0 5.498222351074222 11.362503051757805)"><path id="路径 1430" fill-rule="evenodd" style="fill:#3EB0AE" transform="translate(0 0)  rotate(0 5.498222351074222 11.362503051757805)" opacity="1" d="M11 21.58C11 21.68 10.99 21.77 10.99 21.87L9.51 22.73C9.51 22.63 9.52 22.53 9.52 22.43C9.52 5.23 0.09 2.14 0 2.11L0.81 0C1.23 0.12 11 3.28 11 21.58Z" /></g></g><g opacity="1" transform="translate(0.7387208342552256 35.20716857910156)  rotate(0 9.85062026977539 23.2758045196533)"><g opacity="1" transform="translate(4.406763553619378 38.29642105102539)  rotate(0 5.444179534912109 4.127593994140604)"><path id="路径 1431" fill-rule="evenodd" style="fill:#3EB0AE" transform="translate(0 0)  rotate(0 5.444179534912109 4.127593994140604)" opacity="1" d="M0 6.29L10.89 0L10.89 1.97L0 8.26L0 6.29Z" /></g><g opacity="1" transform="translate(4.406763553619378 0)  rotate(0 5.444179534912109 4.127616882324219)"><path id="路径 1432" fill-rule="evenodd" style="fill:#3EB0AE" transform="translate(0 0)  rotate(0 5.444179534912109 4.127616882324219)" opacity="1" d="M0 6.29L10.89 0L10.89 1.97L0 8.26L0 6.29Z" /></g><g opacity="1" transform="translate(1.0850496292114258 7.541021347045898)  rotate(0 8.815654754638672 6.074104309082031)"><path id="路径 1433" fill-rule="evenodd" style="fill:#3EB0AE" transform="translate(0 0)  rotate(0 8.815654754638672 6.074104309082031)" opacity="1" d="M0 10.18L17.63 0L17.63 1.97L0 12.15L0 10.18Z" /></g><g opacity="1" transform="translate(1.2329318523406982 26.895366668701172)  rotate(0 8.741710662841793 6.031471252441392)"><path id="路径 1434" fill-rule="evenodd" style="fill:#3EB0AE" transform="translate(0 0)  rotate(0 8.741710662841793 6.031471252441392)" opacity="1" d="M0 10.09L17.48 0L17.48 1.97L0 12.06L0 10.09Z" /></g><g opacity="1" transform="translate(0 16.90081787109375)  rotate(0 9.85062026977539 6.671722412109375)"><path id="路径 1435" fill-rule="evenodd" style="fill:#3EB0AE" transform="translate(0 0)  rotate(0 9.85062026977539 6.671722412109375)" opacity="1" d="M0 11.37L19.7 0L19.7 1.97L0 13.34L0 11.37Z" /></g></g><g opacity="1" transform="translate(1.971652626991279 9.387618064880371)  rotate(0 8.741710662841793 9.828120708465576)"><g opacity="1" transform="translate(3.1738319396972585 11.40103816986084)  rotate(0 5.444179534912109 4.127601623535156)"><path id="路径 1436" fill-rule="evenodd" style="fill:#3EB0AE" transform="translate(0 0)  rotate(0 5.444179534912109 4.127601623535156)" opacity="1" d="M0 6.29L10.89 0L10.89 1.97L0 8.26L0 6.29Z" /></g><g opacity="1" transform="translate(0 0)  rotate(0 8.741710662841793 6.031463623046875)"><path id="路径 1437" fill-rule="evenodd" style="fill:#3EB0AE" transform="translate(0 0)  rotate(0 8.741710662841793 6.031463623046875)" opacity="1" d="M0 10.09L17.48 0L17.48 1.97L0 12.06L0 10.09Z" /></g></g><g opacity="1" transform="translate(0.7387208342552256 88.02329254150388)  rotate(0 9.85062026977539 23.27592658996584)"><g opacity="1" transform="translate(4.406763553619378 38.29663467407228)  rotate(0 5.444179534912109 4.127609252929702)"><path id="路径 1438" fill-rule="evenodd" style="fill:#3EB0AE" transform="translate(0 0)  rotate(0 5.444179534912109 4.127609252929702)" opacity="1" d="M0 6.29L10.89 0L10.89 1.97L0 8.26L0 6.29Z" /></g><g opacity="1" transform="translate(4.406763553619378 0)  rotate(0 5.444179534912109 4.127708435058601)"><path id="路径 1439" fill-rule="evenodd" style="fill:#3EB0AE" transform="translate(0 0)  rotate(0 5.444179534912109 4.127708435058601)" opacity="1" d="M0 6.29L10.89 0L10.89 1.97L0 8.26L0 6.29Z" /></g><g opacity="1" transform="translate(1.0850496292114258 7.541021347045984)  rotate(0 8.815654754638672 6.0740966796875)"><path id="路径 1440" fill-rule="evenodd" style="fill:#3EB0AE" transform="translate(0 0)  rotate(0 8.815654754638672 6.0740966796875)" opacity="1" d="M0 10.18L17.63 0L17.63 1.97L0 12.15L0 10.18Z" /></g><g opacity="1" transform="translate(1.2329318523406982 26.895595550537095)  rotate(0 8.741710662841793 6.031356811523452)"><path id="路径 1441" fill-rule="evenodd" style="fill:#3EB0AE" transform="translate(0 0)  rotate(0 8.741710662841793 6.031356811523452)" opacity="1" d="M0 10.09L17.48 0L17.48 1.97L0 12.06L0 10.09Z" /></g><g opacity="1" transform="translate(0 16.901031494140625)  rotate(0 9.85062026977539 6.671730041503899)"><path id="路径 1442" fill-rule="evenodd" style="fill:#3EB0AE" transform="translate(0 0)  rotate(0 9.85062026977539 6.671730041503899)" opacity="1" d="M0 11.37L19.7 0L19.7 1.97L0 13.34L0 11.37Z" /></g></g><g opacity="1" transform="translate(1.8237705230712962 140.78884887695307)  rotate(0 8.815654754638672 9.844582557678223)"><g opacity="1" transform="translate(3.321713924407952 0)  rotate(0 5.444179534912109 4.127609252929702)"><path id="路径 1443" fill-rule="evenodd" style="fill:#3EB0AE" transform="translate(0 0)  rotate(0 5.444179534912109 4.127609252929702)" opacity="1" d="M0 6.29L10.89 0L10.89 1.97L0 8.26L0 6.29Z" /></g><g opacity="1" transform="translate(0 7.540971755981445)  rotate(0 8.815654754638672 6.0740966796875)"><path id="路径 1444" fill-rule="evenodd" style="fill:#3EB0AE" transform="translate(0 0)  rotate(0 8.815654754638672 6.0740966796875)" opacity="1" d="M0 10.18L17.63 0L17.63 1.97L0 12.15L0 10.18Z" /></g></g></g><path id="路径 1445" fill-rule="evenodd" style="fill:#D4FAF7" transform="translate(0 0)  rotate(0 39.41800117492675 22.723598480224606)" opacity="1" d="M3.56 45.45L0 43.38L75.27 0L78.84 2.07L3.56 45.45Z" /><path id="路径 1446" fill-rule="evenodd" style="fill:#E5E5E5" transform="translate(0 43.38053894042968)  rotate(0 1.7808132171630842 89.1618995666504)" opacity="1" d="M0 0L3.56 2.07L3.56 178.32L0 176.26L0 0Z" /><g opacity="1" transform="translate(41.197872161865234 16.84599964146178)  rotate(0 15.110679626464844 73.67712930677155)"><path id="路径 1447" fill-rule="evenodd" style="fill:#E5E5E5" transform="translate(0 0)  rotate(0 15.110166549682617 9.953894855382359)" opacity="1" d="M28.82 0.17C29.59 -0.28 30.22 0.2 30.22 1.23C30.22 2.26 29.59 3.47 28.82 3.92L1.41 19.74C0.63 20.19 0 19.71 0 18.68C0 17.65 0.63 16.44 1.41 15.99L28.82 0.17Z" /><path id="路径 1448" fill-rule="evenodd" style="fill:#E5E5E5" transform="translate(0 8.475032156407657)  rotate(0 15.110166549682617 9.953894507759703)" opacity="1" d="M28.82 0.17C29.59 -0.28 30.22 0.2 30.22 1.23C30.22 2.26 29.59 3.47 28.82 3.92L1.41 19.74C0.63 20.19 0 19.71 0 18.68C0 17.65 0.63 16.44 1.41 15.99L28.82 0.17Z" /><path id="路径 1449" fill-rule="evenodd" style="fill:#E5E5E5" transform="translate(0 16.919933897565805)  rotate(0 15.110166549682617 9.953737297226137)" opacity="1" d="M28.82 0.17C29.59 -0.28 30.22 0.2 30.22 1.23C30.22 2.26 29.59 3.47 28.82 3.92L1.41 19.74C0.63 20.19 0 19.71 0 18.68C0 17.65 0.63 16.44 1.41 15.99L28.82 0.17Z" /><path id="路径 1450" fill-rule="evenodd" style="fill:#E5E5E5" transform="translate(0 59.73654912676665)  rotate(0 15.110166549682617 9.953891741592457)" opacity="1" d="M28.82 0.17C29.59 -0.28 30.22 0.2 30.22 1.23C30.22 2.26 29.59 3.47 28.82 3.92L1.41 19.74C0.63 20.19 0 19.71 0 18.68C0 17.65 0.63 16.44 1.41 15.99L28.82 0.17Z" /><path id="路径 1451" fill-rule="evenodd" style="fill:#E5E5E5" transform="translate(0 68.21158399553879)  rotate(0 15.110166549682617 9.953900303060188)" opacity="1" d="M28.82 0.17C29.59 -0.28 30.22 0.2 30.22 1.23C30.22 2.26 29.59 3.47 28.82 3.92L1.41 19.74C0.63 20.19 0 19.71 0 18.68C0 17.65 0.63 16.44 1.41 15.99L28.82 0.17Z" /><path id="路径 1452" fill-rule="evenodd" style="fill:#E5E5E5" transform="translate(0 76.65645410717774)  rotate(0 15.110166549682617 9.953300103329987)" opacity="1" d="M28.82 0.17C29.59 -0.28 30.22 0.2 30.22 1.23C30.22 2.26 29.59 3.47 28.82 3.92L1.41 19.74C0.63 20.19 0 19.71 0 18.68C0 17.65 0.63 16.44 1.41 15.99L28.82 0.17Z" /><path id="路径 1453" fill-rule="evenodd" style="fill:#FFFFFF" transform="translate(0.0008125305175852304 25.261344032244274)  rotate(0 15.110273361206051 22.409095764160167)" opacity="1" d="M0 17.45L30.22 0L30.22 27.37L0 44.82L0 17.45Z" /><path id="路径 1454" fill-rule="evenodd" style="fill:#FFFFFF" transform="translate(0.0008125305175852304 110.77183063502751)  rotate(0 15.110273361206051 18.29121398925779)" opacity="1" d="M0 17.45L30.22 0L30.22 19.13L0 36.58L0 17.45Z" /></g><g opacity="1" transform="translate(41.197872161865234 102.09380403251063)  rotate(0 15.110166549682617 43.90573180505077)"><path id="路径 1455" fill-rule="evenodd" style="fill:#E5E5E5" transform="translate(0 0)  rotate(0 15.110166549682617 9.954337446981533)" opacity="1" d="M28.82 0.17C29.59 -0.28 30.22 0.2 30.22 1.23C30.22 2.26 29.59 3.47 28.82 3.92L1.41 19.74C0.63 20.19 0 19.71 0 18.68C0 17.65 0.63 16.44 1.41 15.99L28.82 0.17Z" /><path id="路径 1456" fill-rule="evenodd" style="fill:#E5E5E5" transform="translate(0 8.47503687176851)  rotate(0 15.110166549682617 9.954344825701298)" opacity="1" d="M28.82 0.17C29.59 -0.28 30.22 0.2 30.22 1.23C30.22 2.26 29.59 3.47 28.82 3.92L1.41 19.74C0.63 20.19 0 19.71 0 18.68C0 17.65 0.63 16.44 1.41 15.99L28.82 0.17Z" /><path id="路径 1457" fill-rule="evenodd" style="fill:#E5E5E5" transform="translate(0 16.91993738446385)  rotate(0 15.110166549682617 9.954340557871461)" opacity="1" d="M28.82 0.17C29.59 -0.28 30.22 0.2 30.22 1.23C30.22 2.26 29.59 3.47 28.82 3.92L1.41 19.74C0.63 20.19 0 19.71 0 18.68C0 17.65 0.63 16.44 1.41 15.99L28.82 0.17Z" /><path id="路径 1458" fill-rule="evenodd" style="fill:#E5E5E5" transform="translate(0 50.98374938964841)  rotate(0 15.110166549682617 9.954338424765815)" opacity="1" d="M28.82 0.17C29.59 -0.28 30.22 0.2 30.22 1.23C30.22 2.26 29.59 3.47 28.82 3.92L1.41 19.74C0.63 20.19 0 19.71 0 18.68C0 17.65 0.63 16.44 1.41 15.99L28.82 0.17Z" /><path id="路径 1459" fill-rule="evenodd" style="fill:#E5E5E5" transform="translate(0 59.45878399725753)  rotate(0 15.110166549682617 9.954347811336618)" opacity="1" d="M28.82 0.17C29.59 -0.28 30.22 0.2 30.22 1.23C30.22 2.26 29.59 3.47 28.82 3.92L1.41 19.74C0.63 20.19 0 19.71 0 18.68C0 17.65 0.63 16.44 1.41 15.99L28.82 0.17Z" /><path id="路径 1460" fill-rule="evenodd" style="fill:#E5E5E5" transform="translate(0 67.90367162290919)  rotate(0 15.110166549682617 9.953895993596177)" opacity="1" d="M28.82 0.17C29.59 -0.28 30.22 0.2 30.22 1.23C30.22 2.26 29.59 3.47 28.82 3.92L1.41 19.74C0.63 20.19 0 19.71 0 18.68C0 17.65 0.63 16.44 1.41 15.99L28.82 0.17Z" /></g></g><g opacity="1" transform="translate(50.76934070126224 103.86876139233217)  rotate(0 30.71712652574313 34.39018233783079)"><path id="路径 1461" fill-rule="evenodd" style="fill:#D4FAF7" transform="translate(0 0)  rotate(0 27.720312919081994 32.82803209788629)" opacity="1" d="M55.1 3.67L53.86 5.08C57.21 11.24 54.74 20.41 50.99 28.61C50.71 29.22 50.43 29.83 50.13 30.43C46.85 37.18 42.9 43.04 41 45.64C36.31 52.06 27.72 65.66 27.72 65.66C27.72 65.66 21.86 63.15 17.18 61.7L16.65 62.84L9.41 59.11L9.42 59.11C8.06 58.41 6.64 57.5 5.32 56.32C5.03 56.06 4.74 55.78 4.46 55.49C0.13 51.02 -2.51 43.31 3.55 30.37C11.56 13.29 20.85 15.11 25.21 17.27L25.33 17.33C25.45 17.39 25.57 17.45 25.68 17.51L27.84 18.65C29.01 16.33 39.62 -3.89 49.34 0.67L49.36 0.65L49.71 0.84C49.77 0.87 49.82 0.9 49.88 0.93L55.1 3.67Z" /><g opacity="1" transform="translate(5.98592623586822 3.102403197684609)  rotate(0 27.72416340780902 32.83898073898848)"><path id="路径 1462" fill-rule="evenodd" style="fill:#3EB0AE" transform="translate(0 0)  rotate(0 27.72416340780902 27.83384615646891)" opacity="1" d="M22.38 20.9L17.29 55.67L14.1 49.95L4.46 55.51C0.13 51.04 -2.51 43.33 3.55 30.39C14.45 7.16 27.72 18.9 27.72 18.9C27.72 18.9 41 -8.17 51.89 2.49C57.96 8.42 55.32 19.17 50.99 28.63L41.42 34.16L37.93 11.92L32.84 46.69L29.65 40.96L25.87 43.13L22.38 20.9Z" /><path id="路径 1463" fill-rule="evenodd" style="fill:#3EB0AE" transform="translate(5.322295395022849 18.63674748871911)  rotate(0 22.406326293945344 23.520606994628928)" opacity="1" d="M35.28 17.32L44.81 11.82C41.52 18.57 37.58 24.42 35.68 27.03C30.99 33.45 22.4 47.04 22.4 47.04C22.4 47.04 13.82 43.36 9.13 42.36C7.23 41.95 3.29 40.65 0 37.7L8.2 32.97L12.39 40.5L17.01 8.98L19.73 26.3L23.72 23.99L27.94 31.52L32.56 0L35.28 17.32Z" /><path id="路径 1464" fill-rule="evenodd" style="fill:#FFFFFF" transform="translate(4.463168350345121 11.923025259715203)  rotate(0 23.265449523925795 23.60673522949218)" opacity="1" d="M17.87 15.69L13.25 47.21L9.05 39.69L0.86 44.42C0.57 44.16 0.28 43.88 0 43.59L9.64 38.02L12.82 43.74L17.92 8.98L21.41 31.21L25.18 29.04L28.37 34.77L33.47 0L36.96 22.23L46.53 16.71C46.25 17.32 45.96 17.93 45.67 18.53L36.14 24.04L33.42 6.71L28.8 38.24L24.58 30.71L20.59 33.02L17.87 15.69Z" /></g></g><g opacity="1" transform="translate(213.03062438964838 148.27389798006675)  rotate(0 13.696567535400405 17.833940158083323)"><path id="路径 1465" fill-rule="evenodd" style="fill:#FD2786" transform="translate(0 0)  rotate(0 11.808212280273452 17.532949765933104)" opacity="1" d="M10.45 31.94L8.99 35.07L3.93 32.09C1.53 30.71 0 27.51 0 22.95C0 14.63 5.06 4.96 11.31 1.35C13.99 -0.2 16.44 -0.37 18.38 0.59L18.38 0.58L18.42 0.61C18.54 0.67 23.62 3.65 23.62 3.65L22.28 6.52C22.49 7.54 22.61 8.67 22.61 9.9C22.61 18.22 17.55 27.9 11.31 31.5C11.02 31.67 10.73 31.8 10.45 31.94Z" /><path id="路径 1466" fill-rule="evenodd" style="fill:#FF559A" transform="translate(4.782264709472713 2.804400346320435)  rotate(0 11.305435180664048 16.431739984923105)" opacity="1" d="M0 22.96C0 14.63 5.06 4.96 11.3 1.36C17.55 -2.25 22.61 1.58 22.61 9.9C22.61 18.23 17.55 27.9 11.3 31.51C5.06 35.11 0 31.29 0 22.96Z" /><path id="路径 1467" fill-rule="evenodd" style="fill:#FFFFFF" transform="translate(12.144111633300838 7.590939204717728)  rotate(0 3.9845123291015483 11.547598251934502)" opacity="1" d="M4.33 22.61C1.65 24.13 0 21.93 0 18.04C0 14.13 4.38 0 4.38 0C4.38 0 7.97 9.53 7.97 13.44C7.97 17.33 7.01 21.04 4.33 22.61Z" /></g></g><path  id="路径 4" style="stroke:#979797; stroke-width:1; stroke-opacity:1; stroke-dasharray:0 0" transform="translate(367.03485228296995 54.895498455131076)  rotate(0 0.5 0.5)" d="" /></g></g></svg>