<svg xmlns="http://www.w3.org/2000/svg" xmlns:xlink="http://www.w3.org/1999/xlink" width="26" height="26" viewBox="0 0 26 26" fill="none"><g opacity="1" transform="translate(0 0)  rotate(0 13 13)"><path id="路径" fill-rule="evenodd" style="fill:#D4FCE4" transform="translate(0 10.758620689655173)  rotate(0 13 7.620689655172414)" opacity="1" d="M13.44,15.14L24.73,8.92C25.32,8.75 25.8,8.31 25.99,7.72C25.77,7.91 25.86,7.53 25.84,7.27C25.66,6.79 25.25,6.44 24.75,6.33L13.79,0.29C13.58,0.14 13.33,0.04 13.06,0C13.19,0.05 13.02,0.03 12.91,0.04C12.71,0.07 12.52,0.15 12.35,0.27L1.28,6.32C0.68,6.48 0.21,6.93 0.01,7.51C0.23,7.32 0.14,7.71 0.16,7.97C0.3,8.38 0.64,8.69 1.06,8.8L12.32,14.95C12.53,15.11 12.78,15.2 13.04,15.24C13.18,15.24 13.32,15.21 13.44,15.14Z " /><path id="路径" fill-rule="evenodd" style="fill:#C0C4CC" transform="translate(0 5.379310344827586)  rotate(0 13 7.620689655172414)" opacity="1" d="M13.44,15.14L24.73,8.92C25.32,8.75 25.8,8.31 25.99,7.72C25.77,7.92 25.86,7.53 25.84,7.27C25.66,6.79 25.25,6.44 24.75,6.33L13.79,0.29C13.58,0.14 13.33,0.04 13.06,0C13.19,0.05 13.02,0.03 12.91,0.04C12.71,0.07 12.52,0.15 12.35,0.27L1.28,6.32C0.68,6.48 0.21,6.93 0.01,7.52C0.23,7.32 0.14,7.71 0.16,7.97C0.3,8.38 0.64,8.7 1.06,8.8L12.32,14.95C12.53,15.1 12.78,15.2 13.05,15.24C13.18,15.24 13.32,15.21 13.44,15.14Z " /><path id="路径" fill-rule="evenodd" style="fill:#55A684" transform="translate(0 0)  rotate(0 13 7.620689655172414)" opacity="1" d="M13.44,15.14L24.73,8.92C25.32,8.75 25.8,8.31 25.99,7.72C25.77,7.91 25.86,7.53 25.84,7.27C25.66,6.79 25.25,6.44 24.75,6.33L13.79,0.29C13.58,0.14 13.33,0.04 13.06,0C13.19,0.05 13.02,0.03 12.91,0.04C12.71,0.07 12.52,0.15 12.35,0.27L1.28,6.32C0.68,6.48 0.21,6.93 0.01,7.51C0.23,7.32 0.14,7.71 0.16,7.97C0.3,8.38 0.64,8.69 1.06,8.8L12.32,14.95C12.53,15.11 12.78,15.2 13.04,15.24C13.18,15.24 13.32,15.21 13.44,15.14Z " /></g></svg>